<svg width="345" height="33" viewBox="0 0 345 33" fill="none" xmlns="http://www.w3.org/2000/svg">
<g filter="url(#filter0_i_40_2)">
<path d="M1.08 0.26H4.875C5.735 0.26 6.51 0.39 7.2 0.649999C7.89 0.909999 8.475 1.275 8.955 1.745C9.435 2.215 9.8 2.78 10.05 3.44C10.31 4.1 10.44 4.83 10.44 5.63C10.44 6.43 10.31 7.16 10.05 7.82C9.8 8.48 9.435 9.045 8.955 9.515C8.475 9.985 7.89 10.35 7.2 10.61C6.51 10.87 5.735 11 4.875 11H1.08V0.26ZM4.755 8.78C5.335 8.78 5.835 8.705 6.255 8.555C6.675 8.395 7.02 8.175 7.29 7.895C7.57 7.615 7.775 7.285 7.905 6.905C8.035 6.515 8.1 6.09 8.1 5.63C8.1 5.17 8.035 4.75 7.905 4.37C7.775 3.98 7.57 3.645 7.29 3.365C7.02 3.085 6.675 2.87 6.255 2.72C5.835 2.56 5.335 2.48 4.755 2.48H3.42V8.78H4.755ZM15.1613 3.41C15.7313 3.41 16.2563 3.51 16.7363 3.71C17.2263 3.9 17.6463 4.17 17.9963 4.52C18.3563 4.86 18.6313 5.27 18.8213 5.75C19.0213 6.23 19.1213 6.755 19.1213 7.325C19.1213 7.895 19.0213 8.42 18.8213 8.9C18.6313 9.38 18.3563 9.795 17.9963 10.145C17.6463 10.485 17.2263 10.755 16.7363 10.955C16.2563 11.145 15.7313 11.24 15.1613 11.24C14.5913 11.24 14.0613 11.145 13.5713 10.955C13.0913 10.755 12.6713 10.485 12.3113 10.145C11.9613 9.795 11.6863 9.38 11.4863 8.9C11.2963 8.42 11.2013 7.895 11.2013 7.325C11.2013 6.755 11.2963 6.23 11.4863 5.75C11.6863 5.27 11.9613 4.86 12.3113 4.52C12.6713 4.17 13.0913 3.9 13.5713 3.71C14.0613 3.51 14.5913 3.41 15.1613 3.41ZM15.1613 9.14C15.3913 9.14 15.6063 9.1 15.8063 9.02C16.0163 8.93 16.2013 8.81 16.3613 8.66C16.5213 8.5 16.6463 8.31 16.7363 8.09C16.8263 7.86 16.8713 7.605 16.8713 7.325C16.8713 7.045 16.8263 6.795 16.7363 6.575C16.6463 6.355 16.5213 6.165 16.3613 6.005C16.2013 5.845 16.0163 5.725 15.8063 5.645C15.6063 5.555 15.3913 5.51 15.1613 5.51C14.9313 5.51 14.7113 5.555 14.5013 5.645C14.3013 5.725 14.1213 5.845 13.9613 6.005C13.8013 6.165 13.6763 6.355 13.5863 6.575C13.4963 6.795 13.4513 7.045 13.4513 7.325C13.4513 7.605 13.4963 7.86 13.5863 8.09C13.6763 8.31 13.8013 8.5 13.9613 8.66C14.1213 8.81 14.3013 8.93 14.5013 9.02C14.7113 9.1 14.9313 9.14 15.1613 9.14ZM22.3345 4.58H22.4845C22.9845 3.8 23.7345 3.41 24.7345 3.41C25.6545 3.41 26.3395 3.705 26.7895 4.295C27.2395 4.885 27.4645 5.66 27.4645 6.62V11H25.2145V6.875C25.2145 6.475 25.1195 6.15 24.9295 5.9C24.7395 5.64 24.4445 5.51 24.0445 5.51C23.5345 5.51 23.1445 5.705 22.8745 6.095C22.6145 6.485 22.4845 6.995 22.4845 7.625V11H20.2345V3.65H22.3345V4.58ZM28.7142 3.95L29.4942 2.765C29.2442 2.655 29.0442 2.485 28.8942 2.255C28.7442 2.015 28.6692 1.75 28.6692 1.46C28.6692 1.06 28.8092 0.719999 29.0892 0.439999C29.3692 0.159999 29.7092 0.0199992 30.1092 0.0199992C30.5092 0.0199992 30.8492 0.159999 31.1292 0.439999C31.4092 0.719999 31.5492 1.06 31.5492 1.46C31.5492 1.64 31.5192 1.8 31.4592 1.94C31.4092 2.08 31.3242 2.235 31.2042 2.405L29.7192 4.61L28.7142 3.95ZM33.6275 5.54H32.3375V3.65H33.6275V1.4H35.8775V3.65H37.6925V5.54H35.8775V8.015C35.8775 8.175 35.8975 8.325 35.9375 8.465C35.9775 8.595 36.0475 8.705 36.1475 8.795C36.2975 8.925 36.4925 8.99 36.7325 8.99C36.8925 8.99 37.0275 8.97 37.1375 8.93C37.2475 8.89 37.3425 8.84 37.4225 8.78L38.0525 10.73C37.7925 10.85 37.5125 10.945 37.2125 11.015C36.9125 11.085 36.5925 11.12 36.2525 11.12C35.4625 11.12 34.8375 10.89 34.3775 10.43C34.1375 10.19 33.9525 9.895 33.8225 9.545C33.6925 9.185 33.6275 8.79 33.6275 8.36V5.54ZM41.7055 3.65H44.2855L45.2905 7.79H45.4405L46.7455 3.65H49.0555L50.3455 7.79H50.4955L51.4855 3.65H54.0355L51.6955 11H49.2355L47.9305 6.86H47.7805L46.4905 11H44.0455L41.7055 3.65ZM58.3302 3.41C58.9002 3.41 59.4252 3.51 59.9052 3.71C60.3952 3.9 60.8152 4.17 61.1652 4.52C61.5252 4.86 61.8002 5.27 61.9902 5.75C62.1902 6.23 62.2902 6.755 62.2902 7.325C62.2902 7.895 62.1902 8.42 61.9902 8.9C61.8002 9.38 61.5252 9.795 61.1652 10.145C60.8152 10.485 60.3952 10.755 59.9052 10.955C59.4252 11.145 58.9002 11.24 58.3302 11.24C57.7602 11.24 57.2302 11.145 56.7402 10.955C56.2602 10.755 55.8402 10.485 55.4802 10.145C55.1302 9.795 54.8552 9.38 54.6552 8.9C54.4652 8.42 54.3702 7.895 54.3702 7.325C54.3702 6.755 54.4652 6.23 54.6552 5.75C54.8552 5.27 55.1302 4.86 55.4802 4.52C55.8402 4.17 56.2602 3.9 56.7402 3.71C57.2302 3.51 57.7602 3.41 58.3302 3.41ZM58.3302 9.14C58.5602 9.14 58.7752 9.1 58.9752 9.02C59.1852 8.93 59.3702 8.81 59.5302 8.66C59.6902 8.5 59.8152 8.31 59.9052 8.09C59.9952 7.86 60.0402 7.605 60.0402 7.325C60.0402 7.045 59.9952 6.795 59.9052 6.575C59.8152 6.355 59.6902 6.165 59.5302 6.005C59.3702 5.845 59.1852 5.725 58.9752 5.645C58.7752 5.555 58.5602 5.51 58.3302 5.51C58.1002 5.51 57.8802 5.555 57.6702 5.645C57.4702 5.725 57.2902 5.845 57.1302 6.005C56.9702 6.165 56.8452 6.355 56.7552 6.575C56.6652 6.795 56.6202 7.045 56.6202 7.325C56.6202 7.605 56.6652 7.86 56.7552 8.09C56.8452 8.31 56.9702 8.5 57.1302 8.66C57.2902 8.81 57.4702 8.93 57.6702 9.02C57.8802 9.1 58.1002 9.14 58.3302 9.14ZM63.4035 3.65H65.5035V4.58H65.6535C65.8535 4.26 66.1385 3.99 66.5085 3.77C66.8785 3.55 67.2885 3.44 67.7385 3.44C68.0085 3.44 68.2435 3.475 68.4435 3.545C68.6435 3.605 68.8085 3.675 68.9385 3.755L68.3535 5.735C68.2235 5.665 68.0835 5.61 67.9335 5.57C67.7935 5.53 67.6085 5.51 67.3785 5.51C66.8185 5.51 66.3885 5.705 66.0885 6.095C65.7985 6.485 65.6535 6.995 65.6535 7.625V11H63.4035V3.65ZM69.8341 3.65H71.9341V4.58H72.0841C72.2841 4.26 72.5691 3.99 72.9391 3.77C73.3091 3.55 73.7191 3.44 74.1691 3.44C74.4391 3.44 74.6741 3.475 74.8741 3.545C75.0741 3.605 75.2391 3.675 75.3691 3.755L74.7841 5.735C74.6541 5.665 74.5141 5.61 74.3641 5.57C74.2241 5.53 74.0391 5.51 73.8091 5.51C73.2491 5.51 72.8191 5.705 72.5191 6.095C72.2291 6.485 72.0841 6.995 72.0841 7.625V11H69.8341V3.65ZM78.7513 10.685L75.6313 3.65H78.2263L79.9213 7.7H80.0713L81.6913 3.65H84.2263L79.6213 14.24H77.1613L78.7513 10.685ZM86.4471 11.09C86.0471 11.09 85.7071 10.95 85.4271 10.67C85.1471 10.39 85.0071 10.05 85.0071 9.65C85.0071 9.25 85.1471 8.91 85.4271 8.63C85.7071 8.35 86.0471 8.21 86.4471 8.21C86.8471 8.21 87.1871 8.35 87.4671 8.63C87.7471 8.91 87.8871 9.25 87.8871 9.65C87.8871 10.05 87.7471 10.39 87.4671 10.67C87.1871 10.95 86.8471 11.09 86.4471 11.09ZM85.2771 3.2V0.26H87.6171V3.2L87.4071 7.13H85.4871L85.2771 3.2ZM92.9843 0.26H95.3243V11H92.9843V0.26ZM97.9049 5.54H96.6149V3.65H97.9049V1.4H100.155V3.65H101.97V5.54H100.155V8.015C100.155 8.175 100.175 8.325 100.215 8.465C100.255 8.595 100.325 8.705 100.425 8.795C100.575 8.925 100.77 8.99 101.01 8.99C101.17 8.99 101.305 8.97 101.415 8.93C101.525 8.89 101.62 8.84 101.7 8.78L102.33 10.73C102.07 10.85 101.79 10.945 101.49 11.015C101.19 11.085 100.87 11.12 100.53 11.12C99.7399 11.12 99.1149 10.89 98.6549 10.43C98.4149 10.19 98.2299 9.895 98.0999 9.545C97.9699 9.185 97.9049 8.79 97.9049 8.36V5.54ZM106.763 0.26H109.013V3.08L108.863 4.58H109.013C109.243 4.22 109.548 3.935 109.928 3.725C110.308 3.515 110.738 3.41 111.218 3.41C112.148 3.41 112.843 3.69 113.303 4.25C113.763 4.81 113.993 5.6 113.993 6.62V11H111.743V6.875C111.743 6.475 111.648 6.15 111.458 5.9C111.268 5.64 110.973 5.51 110.573 5.51C110.063 5.51 109.673 5.705 109.403 6.095C109.143 6.485 109.013 6.995 109.013 7.625V11H106.763V0.26ZM119.947 10.34H119.797C119.557 10.6 119.282 10.815 118.972 10.985C118.672 11.155 118.282 11.24 117.802 11.24C117.432 11.24 117.082 11.18 116.752 11.06C116.432 10.94 116.147 10.77 115.897 10.55C115.657 10.33 115.467 10.065 115.327 9.755C115.187 9.445 115.117 9.1 115.117 8.72C115.117 8.35 115.192 8.015 115.342 7.715C115.492 7.405 115.697 7.14 115.957 6.92C116.217 6.7 116.522 6.53 116.872 6.41C117.232 6.29 117.622 6.23 118.042 6.23C118.492 6.23 118.862 6.26 119.152 6.32C119.452 6.38 119.717 6.45 119.947 6.53V6.335C119.947 6.015 119.812 5.745 119.542 5.525C119.282 5.295 118.927 5.18 118.477 5.18C117.827 5.18 117.267 5.445 116.797 5.975L115.267 4.895C115.687 4.395 116.172 4.025 116.722 3.785C117.282 3.535 117.897 3.41 118.567 3.41C119.767 3.41 120.672 3.68 121.282 4.22C121.892 4.75 122.197 5.56 122.197 6.65V11H119.947V10.34ZM119.947 8.105C119.717 8.015 119.487 7.945 119.257 7.895C119.037 7.845 118.807 7.82 118.567 7.82C118.167 7.82 117.867 7.905 117.667 8.075C117.467 8.235 117.367 8.445 117.367 8.705C117.367 8.965 117.462 9.175 117.652 9.335C117.842 9.485 118.092 9.56 118.402 9.56C118.652 9.56 118.872 9.52 119.062 9.44C119.262 9.35 119.427 9.235 119.557 9.095C119.687 8.955 119.782 8.8 119.842 8.63C119.912 8.45 119.947 8.275 119.947 8.105ZM125.795 4.46H125.945C126.115 4.17 126.375 3.925 126.725 3.725C127.085 3.515 127.535 3.41 128.075 3.41C128.545 3.41 128.995 3.505 129.425 3.695C129.855 3.885 130.23 4.155 130.55 4.505C130.88 4.845 131.14 5.255 131.33 5.735C131.52 6.215 131.615 6.745 131.615 7.325C131.615 7.905 131.52 8.435 131.33 8.915C131.14 9.395 130.88 9.81 130.55 10.16C130.23 10.5 129.855 10.765 129.425 10.955C128.995 11.145 128.545 11.24 128.075 11.24C127.535 11.24 127.085 11.14 126.725 10.94C126.375 10.73 126.115 10.48 125.945 10.19H125.795L125.945 11.24V14.24H123.695V3.65H125.795V4.46ZM127.58 5.51C127.34 5.51 127.11 5.555 126.89 5.645C126.68 5.725 126.49 5.845 126.32 6.005C126.16 6.165 126.03 6.355 125.93 6.575C125.84 6.795 125.795 7.045 125.795 7.325C125.795 7.605 125.84 7.86 125.93 8.09C126.03 8.31 126.16 8.5 126.32 8.66C126.49 8.81 126.68 8.93 126.89 9.02C127.11 9.1 127.34 9.14 127.58 9.14C127.82 9.14 128.045 9.1 128.255 9.02C128.475 8.93 128.665 8.81 128.825 8.66C128.995 8.5 129.125 8.31 129.215 8.09C129.315 7.86 129.365 7.605 129.365 7.325C129.365 7.045 129.315 6.795 129.215 6.575C129.125 6.355 128.995 6.165 128.825 6.005C128.665 5.845 128.475 5.725 128.255 5.645C128.045 5.555 127.82 5.51 127.58 5.51ZM134.775 4.46H134.925C135.095 4.17 135.355 3.925 135.705 3.725C136.065 3.515 136.515 3.41 137.055 3.41C137.525 3.41 137.975 3.505 138.405 3.695C138.835 3.885 139.21 4.155 139.53 4.505C139.86 4.845 140.12 5.255 140.31 5.735C140.5 6.215 140.595 6.745 140.595 7.325C140.595 7.905 140.5 8.435 140.31 8.915C140.12 9.395 139.86 9.81 139.53 10.16C139.21 10.5 138.835 10.765 138.405 10.955C137.975 11.145 137.525 11.24 137.055 11.24C136.515 11.24 136.065 11.14 135.705 10.94C135.355 10.73 135.095 10.48 134.925 10.19H134.775L134.925 11.24V14.24H132.675V3.65H134.775V4.46ZM136.56 5.51C136.32 5.51 136.09 5.555 135.87 5.645C135.66 5.725 135.47 5.845 135.3 6.005C135.14 6.165 135.01 6.355 134.91 6.575C134.82 6.795 134.775 7.045 134.775 7.325C134.775 7.605 134.82 7.86 134.91 8.09C135.01 8.31 135.14 8.5 135.3 8.66C135.47 8.81 135.66 8.93 135.87 9.02C136.09 9.1 136.32 9.14 136.56 9.14C136.8 9.14 137.025 9.1 137.235 9.02C137.455 8.93 137.645 8.81 137.805 8.66C137.975 8.5 138.105 8.31 138.195 8.09C138.295 7.86 138.345 7.605 138.345 7.325C138.345 7.045 138.295 6.795 138.195 6.575C138.105 6.355 137.975 6.165 137.805 6.005C137.645 5.845 137.455 5.725 137.235 5.645C137.025 5.555 136.8 5.51 136.56 5.51ZM148.971 9.215C148.611 9.845 148.136 10.34 147.546 10.7C146.966 11.06 146.261 11.24 145.431 11.24C144.861 11.24 144.331 11.145 143.841 10.955C143.361 10.755 142.941 10.48 142.581 10.13C142.221 9.78 141.941 9.37 141.741 8.9C141.541 8.42 141.441 7.895 141.441 7.325C141.441 6.795 141.541 6.295 141.741 5.825C141.941 5.345 142.216 4.93 142.566 4.58C142.926 4.22 143.341 3.935 143.811 3.725C144.291 3.515 144.811 3.41 145.371 3.41C145.981 3.41 146.516 3.51 146.976 3.71C147.446 3.91 147.836 4.185 148.146 4.535C148.456 4.875 148.691 5.28 148.851 5.75C149.011 6.21 149.091 6.705 149.091 7.235C149.091 7.315 149.086 7.395 149.076 7.475C149.076 7.555 149.071 7.625 149.061 7.685C149.051 7.755 149.046 7.82 149.046 7.88H143.631C143.741 8.36 143.966 8.71 144.306 8.93C144.646 9.15 145.026 9.26 145.446 9.26C145.866 9.26 146.211 9.17 146.481 8.99C146.761 8.81 146.981 8.58 147.141 8.3L148.971 9.215ZM146.976 6.35C146.956 6.23 146.906 6.1 146.826 5.96C146.756 5.82 146.651 5.695 146.511 5.585C146.381 5.465 146.216 5.37 146.016 5.3C145.826 5.22 145.611 5.18 145.371 5.18C145.021 5.18 144.696 5.28 144.396 5.48C144.096 5.68 143.876 5.97 143.736 6.35H146.976ZM152.457 4.58H152.607C153.107 3.8 153.857 3.41 154.857 3.41C155.777 3.41 156.462 3.705 156.912 4.295C157.362 4.885 157.587 5.66 157.587 6.62V11H155.337V6.875C155.337 6.475 155.242 6.15 155.052 5.9C154.862 5.64 154.567 5.51 154.167 5.51C153.657 5.51 153.267 5.705 152.997 6.095C152.737 6.485 152.607 6.995 152.607 7.625V11H150.357V3.65H152.457V4.58ZM162.161 11.24C161.651 11.24 161.201 11.18 160.811 11.06C160.421 10.94 160.081 10.785 159.791 10.595C159.511 10.395 159.276 10.17 159.086 9.92C158.896 9.66 158.751 9.4 158.651 9.14L160.676 8.285C160.816 8.625 161.011 8.875 161.261 9.035C161.511 9.185 161.811 9.26 162.161 9.26C162.461 9.26 162.691 9.215 162.851 9.125C163.021 9.025 163.106 8.9 163.106 8.75C163.106 8.58 163.026 8.45 162.866 8.36C162.706 8.26 162.451 8.17 162.101 8.09L161.096 7.88C160.856 7.83 160.611 7.75 160.361 7.64C160.111 7.53 159.881 7.385 159.671 7.205C159.461 7.025 159.291 6.815 159.161 6.575C159.031 6.325 158.966 6.04 158.966 5.72C158.966 5.37 159.041 5.055 159.191 4.775C159.351 4.485 159.566 4.24 159.836 4.04C160.106 3.84 160.426 3.685 160.796 3.575C161.166 3.465 161.571 3.41 162.011 3.41C162.771 3.41 163.426 3.545 163.976 3.815C164.526 4.075 164.941 4.515 165.221 5.135L163.286 5.93C163.156 5.67 162.971 5.48 162.731 5.36C162.501 5.24 162.266 5.18 162.026 5.18C161.766 5.18 161.556 5.225 161.396 5.315C161.236 5.405 161.156 5.515 161.156 5.645C161.156 5.785 161.236 5.9 161.396 5.99C161.566 6.07 161.771 6.14 162.011 6.2L163.151 6.47C163.901 6.65 164.461 6.94 164.831 7.34C165.201 7.74 165.386 8.21 165.386 8.75C165.386 9.08 165.306 9.395 165.146 9.695C164.996 9.995 164.776 10.26 164.486 10.49C164.206 10.72 163.866 10.9 163.466 11.03C163.076 11.17 162.641 11.24 162.161 11.24ZM167.907 11.09C167.507 11.09 167.167 10.95 166.887 10.67C166.607 10.39 166.467 10.05 166.467 9.65C166.467 9.25 166.607 8.91 166.887 8.63C167.167 8.35 167.507 8.21 167.907 8.21C168.307 8.21 168.647 8.35 168.927 8.63C169.207 8.91 169.347 9.25 169.347 9.65C169.347 10.05 169.207 10.39 168.927 10.67C168.647 10.95 168.307 11.09 167.907 11.09ZM174.444 11V0.26H178.284C178.834 0.26 179.339 0.344999 179.799 0.514999C180.269 0.684999 180.674 0.924999 181.014 1.235C181.354 1.535 181.619 1.9 181.809 2.33C181.999 2.76 182.094 3.235 182.094 3.755C182.094 4.275 181.999 4.75 181.809 5.18C181.619 5.61 181.354 5.98 181.014 6.29C180.674 6.59 180.269 6.825 179.799 6.995C179.339 7.165 178.834 7.25 178.284 7.25H176.784V11H174.444ZM178.359 5.03C178.849 5.03 179.214 4.91 179.454 4.67C179.694 4.43 179.814 4.125 179.814 3.755C179.814 3.385 179.694 3.08 179.454 2.84C179.214 2.6 178.849 2.48 178.359 2.48H176.784V5.03H178.359ZM183.374 11V0.26H185.624V11H183.374ZM194.337 9.215C193.977 9.845 193.502 10.34 192.912 10.7C192.332 11.06 191.627 11.24 190.797 11.24C190.227 11.24 189.697 11.145 189.207 10.955C188.727 10.755 188.307 10.48 187.947 10.13C187.587 9.78 187.307 9.37 187.107 8.9C186.907 8.42 186.807 7.895 186.807 7.325C186.807 6.795 186.907 6.295 187.107 5.825C187.307 5.345 187.582 4.93 187.932 4.58C188.292 4.22 188.707 3.935 189.177 3.725C189.657 3.515 190.177 3.41 190.737 3.41C191.347 3.41 191.882 3.51 192.342 3.71C192.812 3.91 193.202 4.185 193.512 4.535C193.822 4.875 194.057 5.28 194.217 5.75C194.377 6.21 194.457 6.705 194.457 7.235C194.457 7.315 194.452 7.395 194.442 7.475C194.442 7.555 194.437 7.625 194.427 7.685C194.417 7.755 194.412 7.82 194.412 7.88H188.997C189.107 8.36 189.332 8.71 189.672 8.93C190.012 9.15 190.392 9.26 190.812 9.26C191.232 9.26 191.577 9.17 191.847 8.99C192.127 8.81 192.347 8.58 192.507 8.3L194.337 9.215ZM192.342 6.35C192.322 6.23 192.272 6.1 192.192 5.96C192.122 5.82 192.017 5.695 191.877 5.585C191.747 5.465 191.582 5.37 191.382 5.3C191.192 5.22 190.977 5.18 190.737 5.18C190.387 5.18 190.062 5.28 189.762 5.48C189.462 5.68 189.242 5.97 189.102 6.35H192.342ZM200.206 10.34H200.056C199.816 10.6 199.541 10.815 199.231 10.985C198.931 11.155 198.541 11.24 198.061 11.24C197.691 11.24 197.341 11.18 197.011 11.06C196.691 10.94 196.406 10.77 196.156 10.55C195.916 10.33 195.726 10.065 195.586 9.755C195.446 9.445 195.376 9.1 195.376 8.72C195.376 8.35 195.451 8.015 195.601 7.715C195.751 7.405 195.956 7.14 196.216 6.92C196.476 6.7 196.781 6.53 197.131 6.41C197.491 6.29 197.881 6.23 198.301 6.23C198.751 6.23 199.121 6.26 199.411 6.32C199.711 6.38 199.976 6.45 200.206 6.53V6.335C200.206 6.015 200.071 5.745 199.801 5.525C199.541 5.295 199.186 5.18 198.736 5.18C198.086 5.18 197.526 5.445 197.056 5.975L195.526 4.895C195.946 4.395 196.431 4.025 196.981 3.785C197.541 3.535 198.156 3.41 198.826 3.41C200.026 3.41 200.931 3.68 201.541 4.22C202.151 4.75 202.456 5.56 202.456 6.65V11H200.206V10.34ZM200.206 8.105C199.976 8.015 199.746 7.945 199.516 7.895C199.296 7.845 199.066 7.82 198.826 7.82C198.426 7.82 198.126 7.905 197.926 8.075C197.726 8.235 197.626 8.445 197.626 8.705C197.626 8.965 197.721 9.175 197.911 9.335C198.101 9.485 198.351 9.56 198.661 9.56C198.911 9.56 199.131 9.52 199.321 9.44C199.521 9.35 199.686 9.235 199.816 9.095C199.946 8.955 200.041 8.8 200.101 8.63C200.171 8.45 200.206 8.275 200.206 8.105ZM206.971 11.24C206.461 11.24 206.011 11.18 205.621 11.06C205.231 10.94 204.891 10.785 204.601 10.595C204.321 10.395 204.086 10.17 203.896 9.92C203.706 9.66 203.561 9.4 203.461 9.14L205.486 8.285C205.626 8.625 205.821 8.875 206.071 9.035C206.321 9.185 206.621 9.26 206.971 9.26C207.271 9.26 207.501 9.215 207.661 9.125C207.831 9.025 207.916 8.9 207.916 8.75C207.916 8.58 207.836 8.45 207.676 8.36C207.516 8.26 207.261 8.17 206.911 8.09L205.906 7.88C205.666 7.83 205.421 7.75 205.171 7.64C204.921 7.53 204.691 7.385 204.481 7.205C204.271 7.025 204.101 6.815 203.971 6.575C203.841 6.325 203.776 6.04 203.776 5.72C203.776 5.37 203.851 5.055 204.001 4.775C204.161 4.485 204.376 4.24 204.646 4.04C204.916 3.84 205.236 3.685 205.606 3.575C205.976 3.465 206.381 3.41 206.821 3.41C207.581 3.41 208.236 3.545 208.786 3.815C209.336 4.075 209.751 4.515 210.031 5.135L208.096 5.93C207.966 5.67 207.781 5.48 207.541 5.36C207.311 5.24 207.076 5.18 206.836 5.18C206.576 5.18 206.366 5.225 206.206 5.315C206.046 5.405 205.966 5.515 205.966 5.645C205.966 5.785 206.046 5.9 206.206 5.99C206.376 6.07 206.581 6.14 206.821 6.2L207.961 6.47C208.711 6.65 209.271 6.94 209.641 7.34C210.011 7.74 210.196 8.21 210.196 8.75C210.196 9.08 210.116 9.395 209.956 9.695C209.806 9.995 209.586 10.26 209.296 10.49C209.016 10.72 208.676 10.9 208.276 11.03C207.886 11.17 207.451 11.24 206.971 11.24ZM218.58 9.215C218.22 9.845 217.745 10.34 217.155 10.7C216.575 11.06 215.87 11.24 215.04 11.24C214.47 11.24 213.94 11.145 213.45 10.955C212.97 10.755 212.55 10.48 212.19 10.13C211.83 9.78 211.55 9.37 211.35 8.9C211.15 8.42 211.05 7.895 211.05 7.325C211.05 6.795 211.15 6.295 211.35 5.825C211.55 5.345 211.825 4.93 212.175 4.58C212.535 4.22 212.95 3.935 213.42 3.725C213.9 3.515 214.42 3.41 214.98 3.41C215.59 3.41 216.125 3.51 216.585 3.71C217.055 3.91 217.445 4.185 217.755 4.535C218.065 4.875 218.3 5.28 218.46 5.75C218.62 6.21 218.7 6.705 218.7 7.235C218.7 7.315 218.695 7.395 218.685 7.475C218.685 7.555 218.68 7.625 218.67 7.685C218.66 7.755 218.655 7.82 218.655 7.88H213.24C213.35 8.36 213.575 8.71 213.915 8.93C214.255 9.15 214.635 9.26 215.055 9.26C215.475 9.26 215.82 9.17 216.09 8.99C216.37 8.81 216.59 8.58 216.75 8.3L218.58 9.215ZM216.585 6.35C216.565 6.23 216.515 6.1 216.435 5.96C216.365 5.82 216.26 5.695 216.12 5.585C215.99 5.465 215.825 5.37 215.625 5.3C215.435 5.22 215.22 5.18 214.98 5.18C214.63 5.18 214.305 5.28 214.005 5.48C213.705 5.68 213.485 5.97 213.345 6.35H216.585ZM230.372 9.215C230.012 9.845 229.537 10.34 228.947 10.7C228.367 11.06 227.662 11.24 226.832 11.24C226.262 11.24 225.732 11.145 225.242 10.955C224.762 10.755 224.342 10.48 223.982 10.13C223.622 9.78 223.342 9.37 223.142 8.9C222.942 8.42 222.842 7.895 222.842 7.325C222.842 6.795 222.942 6.295 223.142 5.825C223.342 5.345 223.617 4.93 223.967 4.58C224.327 4.22 224.742 3.935 225.212 3.725C225.692 3.515 226.212 3.41 226.772 3.41C227.382 3.41 227.917 3.51 228.377 3.71C228.847 3.91 229.237 4.185 229.547 4.535C229.857 4.875 230.092 5.28 230.252 5.75C230.412 6.21 230.492 6.705 230.492 7.235C230.492 7.315 230.487 7.395 230.477 7.475C230.477 7.555 230.472 7.625 230.462 7.685C230.452 7.755 230.447 7.82 230.447 7.88H225.032C225.142 8.36 225.367 8.71 225.707 8.93C226.047 9.15 226.427 9.26 226.847 9.26C227.267 9.26 227.612 9.17 227.882 8.99C228.162 8.81 228.382 8.58 228.542 8.3L230.372 9.215ZM228.377 6.35C228.357 6.23 228.307 6.1 228.227 5.96C228.157 5.82 228.052 5.695 227.912 5.585C227.782 5.465 227.617 5.37 227.417 5.3C227.227 5.22 227.012 5.18 226.772 5.18C226.422 5.18 226.097 5.28 225.797 5.48C225.497 5.68 225.277 5.97 225.137 6.35H228.377ZM233.858 4.58H234.008C234.508 3.8 235.258 3.41 236.258 3.41C237.178 3.41 237.863 3.705 238.313 4.295C238.763 4.885 238.988 5.66 238.988 6.62V11H236.738V6.875C236.738 6.475 236.643 6.15 236.453 5.9C236.263 5.64 235.968 5.51 235.568 5.51C235.058 5.51 234.668 5.705 234.398 6.095C234.138 6.485 234.008 6.995 234.008 7.625V11H231.758V3.65H233.858V4.58ZM241.035 5.54H239.745V3.65H241.035V1.4H243.285V3.65H245.1V5.54H243.285V8.015C243.285 8.175 243.305 8.325 243.345 8.465C243.385 8.595 243.455 8.705 243.555 8.795C243.705 8.925 243.9 8.99 244.14 8.99C244.3 8.99 244.435 8.97 244.545 8.93C244.655 8.89 244.75 8.84 244.83 8.78L245.46 10.73C245.2 10.85 244.92 10.945 244.62 11.015C244.32 11.085 244 11.12 243.66 11.12C242.87 11.12 242.245 10.89 241.785 10.43C241.545 10.19 241.36 9.895 241.23 9.545C241.1 9.185 241.035 8.79 241.035 8.36V5.54ZM253.634 9.215C253.274 9.845 252.799 10.34 252.209 10.7C251.629 11.06 250.924 11.24 250.094 11.24C249.524 11.24 248.994 11.145 248.504 10.955C248.024 10.755 247.604 10.48 247.244 10.13C246.884 9.78 246.604 9.37 246.404 8.9C246.204 8.42 246.104 7.895 246.104 7.325C246.104 6.795 246.204 6.295 246.404 5.825C246.604 5.345 246.879 4.93 247.229 4.58C247.589 4.22 248.004 3.935 248.474 3.725C248.954 3.515 249.474 3.41 250.034 3.41C250.644 3.41 251.179 3.51 251.639 3.71C252.109 3.91 252.499 4.185 252.809 4.535C253.119 4.875 253.354 5.28 253.514 5.75C253.674 6.21 253.754 6.705 253.754 7.235C253.754 7.315 253.749 7.395 253.739 7.475C253.739 7.555 253.734 7.625 253.724 7.685C253.714 7.755 253.709 7.82 253.709 7.88H248.294C248.404 8.36 248.629 8.71 248.969 8.93C249.309 9.15 249.689 9.26 250.109 9.26C250.529 9.26 250.874 9.17 251.144 8.99C251.424 8.81 251.644 8.58 251.804 8.3L253.634 9.215ZM251.639 6.35C251.619 6.23 251.569 6.1 251.489 5.96C251.419 5.82 251.314 5.695 251.174 5.585C251.044 5.465 250.879 5.37 250.679 5.3C250.489 5.22 250.274 5.18 250.034 5.18C249.684 5.18 249.359 5.28 249.059 5.48C248.759 5.68 248.539 5.97 248.399 6.35H251.639ZM255.02 3.65H257.12V4.58H257.27C257.47 4.26 257.755 3.99 258.125 3.77C258.495 3.55 258.905 3.44 259.355 3.44C259.625 3.44 259.86 3.475 260.06 3.545C260.26 3.605 260.425 3.675 260.555 3.755L259.97 5.735C259.84 5.665 259.7 5.61 259.55 5.57C259.41 5.53 259.225 5.51 258.995 5.51C258.435 5.51 258.005 5.705 257.705 6.095C257.415 6.485 257.27 6.995 257.27 7.625V11H255.02V3.65ZM267.086 10.685L263.966 3.65H266.561L268.256 7.7H268.406L270.026 3.65H272.561L267.956 14.24H265.496L267.086 10.685ZM276.709 3.41C277.279 3.41 277.804 3.51 278.284 3.71C278.774 3.9 279.194 4.17 279.544 4.52C279.904 4.86 280.179 5.27 280.369 5.75C280.569 6.23 280.669 6.755 280.669 7.325C280.669 7.895 280.569 8.42 280.369 8.9C280.179 9.38 279.904 9.795 279.544 10.145C279.194 10.485 278.774 10.755 278.284 10.955C277.804 11.145 277.279 11.24 276.709 11.24C276.139 11.24 275.609 11.145 275.119 10.955C274.639 10.755 274.219 10.485 273.859 10.145C273.509 9.795 273.234 9.38 273.034 8.9C272.844 8.42 272.749 7.895 272.749 7.325C272.749 6.755 272.844 6.23 273.034 5.75C273.234 5.27 273.509 4.86 273.859 4.52C274.219 4.17 274.639 3.9 275.119 3.71C275.609 3.51 276.139 3.41 276.709 3.41ZM276.709 9.14C276.939 9.14 277.154 9.1 277.354 9.02C277.564 8.93 277.749 8.81 277.909 8.66C278.069 8.5 278.194 8.31 278.284 8.09C278.374 7.86 278.419 7.605 278.419 7.325C278.419 7.045 278.374 6.795 278.284 6.575C278.194 6.355 278.069 6.165 277.909 6.005C277.749 5.845 277.564 5.725 277.354 5.645C277.154 5.555 276.939 5.51 276.709 5.51C276.479 5.51 276.259 5.555 276.049 5.645C275.849 5.725 275.669 5.845 275.509 6.005C275.349 6.165 275.224 6.355 275.134 6.575C275.044 6.795 274.999 7.045 274.999 7.325C274.999 7.605 275.044 7.86 275.134 8.09C275.224 8.31 275.349 8.5 275.509 8.66C275.669 8.81 275.849 8.93 276.049 9.02C276.259 9.1 276.479 9.14 276.709 9.14ZM286.926 10.07H286.776C286.276 10.85 285.526 11.24 284.526 11.24C283.606 11.24 282.921 10.945 282.471 10.355C282.021 9.765 281.796 8.99 281.796 8.03V3.65H284.046V7.775C284.046 8.175 284.141 8.505 284.331 8.765C284.521 9.015 284.816 9.14 285.216 9.14C285.726 9.14 286.111 8.945 286.371 8.555C286.641 8.165 286.776 7.655 286.776 7.025V3.65H289.026V11H286.926V10.07ZM290.703 3.65H292.803V4.58H292.953C293.153 4.26 293.438 3.99 293.808 3.77C294.178 3.55 294.588 3.44 295.038 3.44C295.308 3.44 295.543 3.475 295.743 3.545C295.943 3.605 296.108 3.675 296.238 3.755L295.653 5.735C295.523 5.665 295.383 5.61 295.233 5.57C295.093 5.53 294.908 5.51 294.678 5.51C294.118 5.51 293.688 5.705 293.388 6.095C293.098 6.485 292.953 6.995 292.953 7.625V11H290.703V3.65ZM307.54 9.215C307.18 9.845 306.705 10.34 306.115 10.7C305.535 11.06 304.83 11.24 304 11.24C303.43 11.24 302.9 11.145 302.41 10.955C301.93 10.755 301.51 10.48 301.15 10.13C300.79 9.78 300.51 9.37 300.31 8.9C300.11 8.42 300.01 7.895 300.01 7.325C300.01 6.795 300.11 6.295 300.31 5.825C300.51 5.345 300.785 4.93 301.135 4.58C301.495 4.22 301.91 3.935 302.38 3.725C302.86 3.515 303.38 3.41 303.94 3.41C304.55 3.41 305.085 3.51 305.545 3.71C306.015 3.91 306.405 4.185 306.715 4.535C307.025 4.875 307.26 5.28 307.42 5.75C307.58 6.21 307.66 6.705 307.66 7.235C307.66 7.315 307.655 7.395 307.645 7.475C307.645 7.555 307.64 7.625 307.63 7.685C307.62 7.755 307.615 7.82 307.615 7.88H302.2C302.31 8.36 302.535 8.71 302.875 8.93C303.215 9.15 303.595 9.26 304.015 9.26C304.435 9.26 304.78 9.17 305.05 8.99C305.33 8.81 305.55 8.58 305.71 8.3L307.54 9.215ZM305.545 6.35C305.525 6.23 305.475 6.1 305.395 5.96C305.325 5.82 305.22 5.695 305.08 5.585C304.95 5.465 304.785 5.37 304.585 5.3C304.395 5.22 304.18 5.18 303.94 5.18C303.59 5.18 303.265 5.28 302.965 5.48C302.665 5.68 302.445 5.97 302.305 6.35H305.545ZM308.926 5.33H314.146V7.37H308.926V5.33ZM315.825 3.65H317.925V4.58H318.075C318.315 4.21 318.62 3.925 318.99 3.725C319.37 3.515 319.815 3.41 320.325 3.41C320.885 3.41 321.35 3.545 321.72 3.815C322.09 4.075 322.35 4.38 322.5 4.73C322.72 4.38 323.035 4.075 323.445 3.815C323.855 3.545 324.37 3.41 324.99 3.41C325.43 3.41 325.815 3.485 326.145 3.635C326.475 3.775 326.745 3.975 326.955 4.235C327.175 4.495 327.34 4.805 327.45 5.165C327.56 5.525 327.615 5.92 327.615 6.35V11H325.365V6.785C325.365 6.405 325.275 6.1 325.095 5.87C324.925 5.63 324.67 5.51 324.33 5.51C323.84 5.51 323.47 5.71 323.22 6.11C322.97 6.5 322.845 7.025 322.845 7.685V11H320.595V6.785C320.595 6.405 320.5 6.1 320.31 5.87C320.13 5.63 319.845 5.51 319.455 5.51C318.995 5.51 318.65 5.71 318.42 6.11C318.19 6.5 318.075 7.025 318.075 7.685V11H315.825V3.65ZM333.565 10.34H333.415C333.175 10.6 332.9 10.815 332.59 10.985C332.29 11.155 331.9 11.24 331.42 11.24C331.05 11.24 330.7 11.18 330.37 11.06C330.05 10.94 329.765 10.77 329.515 10.55C329.275 10.33 329.085 10.065 328.945 9.755C328.805 9.445 328.735 9.1 328.735 8.72C328.735 8.35 328.81 8.015 328.96 7.715C329.11 7.405 329.315 7.14 329.575 6.92C329.835 6.7 330.14 6.53 330.49 6.41C330.85 6.29 331.24 6.23 331.66 6.23C332.11 6.23 332.48 6.26 332.77 6.32C333.07 6.38 333.335 6.45 333.565 6.53V6.335C333.565 6.015 333.43 5.745 333.16 5.525C332.9 5.295 332.545 5.18 332.095 5.18C331.445 5.18 330.885 5.445 330.415 5.975L328.885 4.895C329.305 4.395 329.79 4.025 330.34 3.785C330.9 3.535 331.515 3.41 332.185 3.41C333.385 3.41 334.29 3.68 334.9 4.22C335.51 4.75 335.815 5.56 335.815 6.65V11H333.565V10.34ZM333.565 8.105C333.335 8.015 333.105 7.945 332.875 7.895C332.655 7.845 332.425 7.82 332.185 7.82C331.785 7.82 331.485 7.905 331.285 8.075C331.085 8.235 330.985 8.445 330.985 8.705C330.985 8.965 331.08 9.175 331.27 9.335C331.46 9.485 331.71 9.56 332.02 9.56C332.27 9.56 332.49 9.52 332.68 9.44C332.88 9.35 333.045 9.235 333.175 9.095C333.305 8.955 333.4 8.8 333.46 8.63C333.53 8.45 333.565 8.275 333.565 8.105ZM338.618 2.84C338.418 2.84 338.233 2.805 338.063 2.735C337.893 2.655 337.743 2.555 337.613 2.435C337.493 2.305 337.393 2.155 337.313 1.985C337.243 1.815 337.208 1.63 337.208 1.43C337.208 1.24 337.243 1.06 337.313 0.89C337.393 0.71 337.493 0.559999 337.613 0.439999C337.743 0.31 337.893 0.21 338.063 0.139999C338.233 0.0599993 338.418 0.0199992 338.618 0.0199992C338.808 0.0199992 338.988 0.0599993 339.158 0.139999C339.338 0.21 339.488 0.31 339.608 0.439999C339.738 0.559999 339.838 0.71 339.908 0.89C339.988 1.06 340.028 1.24 340.028 1.43C340.028 1.63 339.988 1.815 339.908 1.985C339.838 2.155 339.738 2.305 339.608 2.435C339.488 2.555 339.338 2.655 339.158 2.735C338.988 2.805 338.808 2.84 338.618 2.84ZM337.493 11V3.65H339.743V11H337.493ZM341.548 11V0.26H343.798V11H341.548ZM5.25 28.34H5.1C4.86 28.6 4.585 28.815 4.275 28.985C3.975 29.155 3.585 29.24 3.105 29.24C2.735 29.24 2.385 29.18 2.055 29.06C1.735 28.94 1.45 28.77 1.2 28.55C0.96 28.33 0.77 28.065 0.63 27.755C0.49 27.445 0.42 27.1 0.42 26.72C0.42 26.35 0.495 26.015 0.645 25.715C0.795 25.405 1 25.14 1.26 24.92C1.52 24.7 1.825 24.53 2.175 24.41C2.535 24.29 2.925 24.23 3.345 24.23C3.795 24.23 4.165 24.26 4.455 24.32C4.755 24.38 5.02 24.45 5.25 24.53V24.335C5.25 24.015 5.115 23.745 4.845 23.525C4.585 23.295 4.23 23.18 3.78 23.18C3.13 23.18 2.57 23.445 2.1 23.975L0.57 22.895C0.99 22.395 1.475 22.025 2.025 21.785C2.585 21.535 3.2 21.41 3.87 21.41C5.07 21.41 5.975 21.68 6.585 22.22C7.195 22.75 7.5 23.56 7.5 24.65V29H5.25V28.34ZM5.25 26.105C5.02 26.015 4.79 25.945 4.56 25.895C4.34 25.845 4.11 25.82 3.87 25.82C3.47 25.82 3.17 25.905 2.97 26.075C2.77 26.235 2.67 26.445 2.67 26.705C2.67 26.965 2.765 27.175 2.955 27.335C3.145 27.485 3.395 27.56 3.705 27.56C3.955 27.56 4.175 27.52 4.365 27.44C4.565 27.35 4.73 27.235 4.86 27.095C4.99 26.955 5.085 26.8 5.145 26.63C5.215 26.45 5.25 26.275 5.25 26.105ZM14.3845 28.19H14.2345C14.0645 28.48 13.7995 28.73 13.4395 28.94C13.0895 29.14 12.6445 29.24 12.1045 29.24C11.6345 29.24 11.1845 29.145 10.7545 28.955C10.3245 28.765 9.94453 28.5 9.61453 28.16C9.29453 27.81 9.03953 27.395 8.84953 26.915C8.65953 26.435 8.56453 25.905 8.56453 25.325C8.56453 24.745 8.65953 24.215 8.84953 23.735C9.03953 23.255 9.29453 22.845 9.61453 22.505C9.94453 22.155 10.3245 21.885 10.7545 21.695C11.1845 21.505 11.6345 21.41 12.1045 21.41C12.6445 21.41 13.0895 21.515 13.4395 21.725C13.7995 21.925 14.0645 22.17 14.2345 22.46H14.3845L14.2345 21.41V18.26H16.4845V29H14.3845V28.19ZM12.5995 27.14C12.8395 27.14 13.0645 27.1 13.2745 27.02C13.4945 26.93 13.6845 26.81 13.8445 26.66C14.0145 26.5 14.1445 26.31 14.2345 26.09C14.3345 25.86 14.3845 25.605 14.3845 25.325C14.3845 25.045 14.3345 24.795 14.2345 24.575C14.1445 24.355 14.0145 24.165 13.8445 24.005C13.6845 23.845 13.4945 23.725 13.2745 23.645C13.0645 23.555 12.8395 23.51 12.5995 23.51C12.3595 23.51 12.1295 23.555 11.9095 23.645C11.6995 23.725 11.5095 23.845 11.3395 24.005C11.1795 24.165 11.0495 24.355 10.9495 24.575C10.8595 24.795 10.8145 25.045 10.8145 25.325C10.8145 25.605 10.8595 25.86 10.9495 26.09C11.0495 26.31 11.1795 26.5 11.3395 26.66C11.5095 26.81 11.6995 26.93 11.9095 27.02C12.1295 27.1 12.3595 27.14 12.5995 27.14ZM23.4959 28.19H23.3459C23.1759 28.48 22.9109 28.73 22.5509 28.94C22.2009 29.14 21.7559 29.24 21.2159 29.24C20.7459 29.24 20.2959 29.145 19.8659 28.955C19.4359 28.765 19.0559 28.5 18.7259 28.16C18.4059 27.81 18.1509 27.395 17.9609 26.915C17.7709 26.435 17.6759 25.905 17.6759 25.325C17.6759 24.745 17.7709 24.215 17.9609 23.735C18.1509 23.255 18.4059 22.845 18.7259 22.505C19.0559 22.155 19.4359 21.885 19.8659 21.695C20.2959 21.505 20.7459 21.41 21.2159 21.41C21.7559 21.41 22.2009 21.515 22.5509 21.725C22.9109 21.925 23.1759 22.17 23.3459 22.46H23.4959L23.3459 21.41V18.26H25.5959V29H23.4959V28.19ZM21.7109 27.14C21.9509 27.14 22.1759 27.1 22.3859 27.02C22.6059 26.93 22.7959 26.81 22.9559 26.66C23.1259 26.5 23.2559 26.31 23.3459 26.09C23.4459 25.86 23.4959 25.605 23.4959 25.325C23.4959 25.045 23.4459 24.795 23.3459 24.575C23.2559 24.355 23.1259 24.165 22.9559 24.005C22.7959 23.845 22.6059 23.725 22.3859 23.645C22.1759 23.555 21.9509 23.51 21.7109 23.51C21.4709 23.51 21.2409 23.555 21.0209 23.645C20.8109 23.725 20.6209 23.845 20.4509 24.005C20.2909 24.165 20.1609 24.355 20.0609 24.575C19.9709 24.795 19.9259 25.045 19.9259 25.325C19.9259 25.605 19.9709 25.86 20.0609 26.09C20.1609 26.31 20.2909 26.5 20.4509 26.66C20.6209 26.81 20.8109 26.93 21.0209 27.02C21.2409 27.1 21.4709 27.14 21.7109 27.14ZM27.2804 21.65H29.3804V22.58H29.5304C29.7304 22.26 30.0154 21.99 30.3854 21.77C30.7554 21.55 31.1654 21.44 31.6154 21.44C31.8854 21.44 32.1204 21.475 32.3204 21.545C32.5204 21.605 32.6854 21.675 32.8154 21.755L32.2304 23.735C32.1004 23.665 31.9604 23.61 31.8104 23.57C31.6704 23.53 31.4854 23.51 31.2554 23.51C30.6954 23.51 30.2654 23.705 29.9654 24.095C29.6754 24.485 29.5304 24.995 29.5304 25.625V29H27.2804V21.65ZM40.367 27.215C40.007 27.845 39.532 28.34 38.942 28.7C38.362 29.06 37.657 29.24 36.827 29.24C36.257 29.24 35.727 29.145 35.237 28.955C34.757 28.755 34.337 28.48 33.977 28.13C33.617 27.78 33.337 27.37 33.137 26.9C32.937 26.42 32.837 25.895 32.837 25.325C32.837 24.795 32.937 24.295 33.137 23.825C33.337 23.345 33.612 22.93 33.962 22.58C34.322 22.22 34.737 21.935 35.207 21.725C35.687 21.515 36.207 21.41 36.767 21.41C37.377 21.41 37.912 21.51 38.372 21.71C38.842 21.91 39.232 22.185 39.542 22.535C39.852 22.875 40.087 23.28 40.247 23.75C40.407 24.21 40.487 24.705 40.487 25.235C40.487 25.315 40.482 25.395 40.472 25.475C40.472 25.555 40.467 25.625 40.457 25.685C40.447 25.755 40.442 25.82 40.442 25.88H35.027C35.137 26.36 35.362 26.71 35.702 26.93C36.042 27.15 36.422 27.26 36.842 27.26C37.262 27.26 37.607 27.17 37.877 26.99C38.157 26.81 38.377 26.58 38.537 26.3L40.367 27.215ZM38.372 24.35C38.352 24.23 38.302 24.1 38.222 23.96C38.152 23.82 38.047 23.695 37.907 23.585C37.777 23.465 37.612 23.37 37.412 23.3C37.222 23.22 37.007 23.18 36.767 23.18C36.417 23.18 36.092 23.28 35.792 23.48C35.492 23.68 35.272 23.97 35.132 24.35H38.372ZM44.8563 29.24C44.3463 29.24 43.8963 29.18 43.5063 29.06C43.1163 28.94 42.7763 28.785 42.4863 28.595C42.2063 28.395 41.9713 28.17 41.7813 27.92C41.5913 27.66 41.4463 27.4 41.3463 27.14L43.3713 26.285C43.5113 26.625 43.7063 26.875 43.9563 27.035C44.2063 27.185 44.5063 27.26 44.8563 27.26C45.1563 27.26 45.3863 27.215 45.5463 27.125C45.7163 27.025 45.8013 26.9 45.8013 26.75C45.8013 26.58 45.7213 26.45 45.5613 26.36C45.4013 26.26 45.1463 26.17 44.7963 26.09L43.7913 25.88C43.5513 25.83 43.3063 25.75 43.0563 25.64C42.8063 25.53 42.5763 25.385 42.3663 25.205C42.1563 25.025 41.9863 24.815 41.8563 24.575C41.7263 24.325 41.6613 24.04 41.6613 23.72C41.6613 23.37 41.7363 23.055 41.8863 22.775C42.0463 22.485 42.2613 22.24 42.5313 22.04C42.8013 21.84 43.1213 21.685 43.4913 21.575C43.8613 21.465 44.2663 21.41 44.7063 21.41C45.4663 21.41 46.1213 21.545 46.6713 21.815C47.2213 22.075 47.6363 22.515 47.9163 23.135L45.9813 23.93C45.8513 23.67 45.6663 23.48 45.4263 23.36C45.1963 23.24 44.9613 23.18 44.7213 23.18C44.4613 23.18 44.2513 23.225 44.0913 23.315C43.9313 23.405 43.8513 23.515 43.8513 23.645C43.8513 23.785 43.9313 23.9 44.0913 23.99C44.2613 24.07 44.4663 24.14 44.7063 24.2L45.8463 24.47C46.5963 24.65 47.1563 24.94 47.5263 25.34C47.8963 25.74 48.0813 26.21 48.0813 26.75C48.0813 27.08 48.0013 27.395 47.8413 27.695C47.6913 27.995 47.4713 28.26 47.1813 28.49C46.9013 28.72 46.5613 28.9 46.1613 29.03C45.7713 29.17 45.3363 29.24 44.8563 29.24ZM52.3124 29.24C51.8024 29.24 51.3524 29.18 50.9624 29.06C50.5724 28.94 50.2324 28.785 49.9424 28.595C49.6624 28.395 49.4274 28.17 49.2374 27.92C49.0474 27.66 48.9024 27.4 48.8024 27.14L50.8274 26.285C50.9674 26.625 51.1624 26.875 51.4124 27.035C51.6624 27.185 51.9624 27.26 52.3124 27.26C52.6124 27.26 52.8424 27.215 53.0024 27.125C53.1724 27.025 53.2574 26.9 53.2574 26.75C53.2574 26.58 53.1774 26.45 53.0174 26.36C52.8574 26.26 52.6024 26.17 52.2524 26.09L51.2474 25.88C51.0074 25.83 50.7624 25.75 50.5124 25.64C50.2624 25.53 50.0324 25.385 49.8224 25.205C49.6124 25.025 49.4424 24.815 49.3124 24.575C49.1824 24.325 49.1174 24.04 49.1174 23.72C49.1174 23.37 49.1924 23.055 49.3424 22.775C49.5024 22.485 49.7174 22.24 49.9874 22.04C50.2574 21.84 50.5774 21.685 50.9474 21.575C51.3174 21.465 51.7224 21.41 52.1624 21.41C52.9224 21.41 53.5774 21.545 54.1274 21.815C54.6774 22.075 55.0924 22.515 55.3724 23.135L53.4374 23.93C53.3074 23.67 53.1224 23.48 52.8824 23.36C52.6524 23.24 52.4174 23.18 52.1774 23.18C51.9174 23.18 51.7074 23.225 51.5474 23.315C51.3874 23.405 51.3074 23.515 51.3074 23.645C51.3074 23.785 51.3874 23.9 51.5474 23.99C51.7174 24.07 51.9224 24.14 52.1624 24.2L53.3024 24.47C54.0524 24.65 54.6124 24.94 54.9824 25.34C55.3524 25.74 55.5374 26.21 55.5374 26.75C55.5374 27.08 55.4574 27.395 55.2974 27.695C55.1474 27.995 54.9274 28.26 54.6374 28.49C54.3574 28.72 54.0174 28.9 53.6174 29.03C53.2274 29.17 52.7924 29.24 52.3124 29.24ZM64.4443 28.34H64.2943C64.0543 28.6 63.7793 28.815 63.4693 28.985C63.1693 29.155 62.7793 29.24 62.2993 29.24C61.9293 29.24 61.5793 29.18 61.2493 29.06C60.9293 28.94 60.6443 28.77 60.3943 28.55C60.1543 28.33 59.9643 28.065 59.8243 27.755C59.6843 27.445 59.6143 27.1 59.6143 26.72C59.6143 26.35 59.6893 26.015 59.8393 25.715C59.9893 25.405 60.1943 25.14 60.4543 24.92C60.7143 24.7 61.0193 24.53 61.3693 24.41C61.7293 24.29 62.1193 24.23 62.5393 24.23C62.9893 24.23 63.3593 24.26 63.6493 24.32C63.9493 24.38 64.2143 24.45 64.4443 24.53V24.335C64.4443 24.015 64.3093 23.745 64.0393 23.525C63.7793 23.295 63.4243 23.18 62.9743 23.18C62.3243 23.18 61.7643 23.445 61.2943 23.975L59.7643 22.895C60.1843 22.395 60.6693 22.025 61.2193 21.785C61.7793 21.535 62.3943 21.41 63.0643 21.41C64.2643 21.41 65.1693 21.68 65.7793 22.22C66.3893 22.75 66.6943 23.56 66.6943 24.65V29H64.4443V28.34ZM64.4443 26.105C64.2143 26.015 63.9843 25.945 63.7543 25.895C63.5343 25.845 63.3043 25.82 63.0643 25.82C62.6643 25.82 62.3643 25.905 62.1643 26.075C61.9643 26.235 61.8643 26.445 61.8643 26.705C61.8643 26.965 61.9593 27.175 62.1493 27.335C62.3393 27.485 62.5893 27.56 62.8993 27.56C63.1493 27.56 63.3693 27.52 63.5593 27.44C63.7593 27.35 63.9243 27.235 64.0543 27.095C64.1843 26.955 64.2793 26.8 64.3393 26.63C64.4093 26.45 64.4443 26.275 64.4443 26.105ZM71.2089 29.24C70.6989 29.24 70.2489 29.18 69.8589 29.06C69.4689 28.94 69.1289 28.785 68.8389 28.595C68.5589 28.395 68.3239 28.17 68.1339 27.92C67.9439 27.66 67.7989 27.4 67.6989 27.14L69.7239 26.285C69.8639 26.625 70.0589 26.875 70.3089 27.035C70.5589 27.185 70.8589 27.26 71.2089 27.26C71.5089 27.26 71.7389 27.215 71.8989 27.125C72.0689 27.025 72.1539 26.9 72.1539 26.75C72.1539 26.58 72.0739 26.45 71.9139 26.36C71.7539 26.26 71.4989 26.17 71.1489 26.09L70.1439 25.88C69.9039 25.83 69.6589 25.75 69.4089 25.64C69.1589 25.53 68.9289 25.385 68.7189 25.205C68.5089 25.025 68.3389 24.815 68.2089 24.575C68.0789 24.325 68.0139 24.04 68.0139 23.72C68.0139 23.37 68.0889 23.055 68.2389 22.775C68.3989 22.485 68.6139 22.24 68.8839 22.04C69.1539 21.84 69.4739 21.685 69.8439 21.575C70.2139 21.465 70.6189 21.41 71.0589 21.41C71.8189 21.41 72.4739 21.545 73.0239 21.815C73.5739 22.075 73.9889 22.515 74.2689 23.135L72.3339 23.93C72.2039 23.67 72.0189 23.48 71.7789 23.36C71.5489 23.24 71.3139 23.18 71.0739 23.18C70.8139 23.18 70.6039 23.225 70.4439 23.315C70.2839 23.405 70.2039 23.515 70.2039 23.645C70.2039 23.785 70.2839 23.9 70.4439 23.99C70.6139 24.07 70.8189 24.14 71.0589 24.2L72.1989 24.47C72.9489 24.65 73.5089 24.94 73.8789 25.34C74.2489 25.74 74.4339 26.21 74.4339 26.75C74.4339 27.08 74.3539 27.395 74.1939 27.695C74.0439 27.995 73.8239 28.26 73.5339 28.49C73.2539 28.72 72.9139 28.9 72.5139 29.03C72.1239 29.17 71.6889 29.24 71.2089 29.24ZM78.6649 29.24C78.1549 29.24 77.7049 29.18 77.3149 29.06C76.9249 28.94 76.5849 28.785 76.2949 28.595C76.0149 28.395 75.7799 28.17 75.5899 27.92C75.3999 27.66 75.2549 27.4 75.1549 27.14L77.1799 26.285C77.3199 26.625 77.5149 26.875 77.7649 27.035C78.0149 27.185 78.3149 27.26 78.6649 27.26C78.9649 27.26 79.1949 27.215 79.3549 27.125C79.5249 27.025 79.6099 26.9 79.6099 26.75C79.6099 26.58 79.5299 26.45 79.3699 26.36C79.2099 26.26 78.9549 26.17 78.6049 26.09L77.5999 25.88C77.3599 25.83 77.1149 25.75 76.8649 25.64C76.6149 25.53 76.3849 25.385 76.1749 25.205C75.9649 25.025 75.7949 24.815 75.6649 24.575C75.5349 24.325 75.4699 24.04 75.4699 23.72C75.4699 23.37 75.5449 23.055 75.6949 22.775C75.8549 22.485 76.0699 22.24 76.3399 22.04C76.6099 21.84 76.9299 21.685 77.2999 21.575C77.6699 21.465 78.0749 21.41 78.5149 21.41C79.2749 21.41 79.9299 21.545 80.4799 21.815C81.0299 22.075 81.4449 22.515 81.7249 23.135L79.7899 23.93C79.6599 23.67 79.4749 23.48 79.2349 23.36C79.0049 23.24 78.7699 23.18 78.5299 23.18C78.2699 23.18 78.0599 23.225 77.8999 23.315C77.7399 23.405 77.6599 23.515 77.6599 23.645C77.6599 23.785 77.7399 23.9 77.8999 23.99C78.0699 24.07 78.2749 24.14 78.5149 24.2L79.6549 24.47C80.4049 24.65 80.9649 24.94 81.3349 25.34C81.7049 25.74 81.8899 26.21 81.8899 26.75C81.8899 27.08 81.8099 27.395 81.6499 27.695C81.4999 27.995 81.2799 28.26 80.9899 28.49C80.7099 28.72 80.3699 28.9 79.9699 29.03C79.5799 29.17 79.1449 29.24 78.6649 29.24ZM86.7042 21.41C87.2742 21.41 87.7992 21.51 88.2792 21.71C88.7692 21.9 89.1892 22.17 89.5392 22.52C89.8992 22.86 90.1742 23.27 90.3642 23.75C90.5642 24.23 90.6642 24.755 90.6642 25.325C90.6642 25.895 90.5642 26.42 90.3642 26.9C90.1742 27.38 89.8992 27.795 89.5392 28.145C89.1892 28.485 88.7692 28.755 88.2792 28.955C87.7992 29.145 87.2742 29.24 86.7042 29.24C86.1342 29.24 85.6042 29.145 85.1142 28.955C84.6342 28.755 84.2142 28.485 83.8542 28.145C83.5042 27.795 83.2292 27.38 83.0292 26.9C82.8392 26.42 82.7442 25.895 82.7442 25.325C82.7442 24.755 82.8392 24.23 83.0292 23.75C83.2292 23.27 83.5042 22.86 83.8542 22.52C84.2142 22.17 84.6342 21.9 85.1142 21.71C85.6042 21.51 86.1342 21.41 86.7042 21.41ZM86.7042 27.14C86.9342 27.14 87.1492 27.1 87.3492 27.02C87.5592 26.93 87.7442 26.81 87.9042 26.66C88.0642 26.5 88.1892 26.31 88.2792 26.09C88.3692 25.86 88.4142 25.605 88.4142 25.325C88.4142 25.045 88.3692 24.795 88.2792 24.575C88.1892 24.355 88.0642 24.165 87.9042 24.005C87.7442 23.845 87.5592 23.725 87.3492 23.645C87.1492 23.555 86.9342 23.51 86.7042 23.51C86.4742 23.51 86.2542 23.555 86.0442 23.645C85.8442 23.725 85.6642 23.845 85.5042 24.005C85.3442 24.165 85.2192 24.355 85.1292 24.575C85.0392 24.795 84.9942 25.045 84.9942 25.325C84.9942 25.605 85.0392 25.86 85.1292 26.09C85.2192 26.31 85.3442 26.5 85.5042 26.66C85.6642 26.81 85.8442 26.93 86.0442 27.02C86.2542 27.1 86.4742 27.14 86.7042 27.14ZM99.064 27.125C98.704 27.785 98.224 28.305 97.624 28.685C97.034 29.055 96.314 29.24 95.464 29.24C94.894 29.24 94.364 29.145 93.874 28.955C93.394 28.755 92.974 28.485 92.614 28.145C92.264 27.795 91.989 27.38 91.789 26.9C91.599 26.42 91.504 25.895 91.504 25.325C91.504 24.755 91.599 24.23 91.789 23.75C91.989 23.27 92.264 22.86 92.614 22.52C92.974 22.17 93.394 21.9 93.874 21.71C94.364 21.51 94.894 21.41 95.464 21.41C96.304 21.41 97.024 21.595 97.624 21.965C98.234 22.335 98.684 22.845 98.974 23.495L96.904 24.365C96.744 24.075 96.549 23.86 96.319 23.72C96.099 23.58 95.814 23.51 95.464 23.51C94.974 23.51 94.564 23.675 94.234 24.005C93.914 24.325 93.754 24.765 93.754 25.325C93.754 25.885 93.914 26.33 94.234 26.66C94.564 26.98 94.974 27.14 95.464 27.14C95.814 27.14 96.114 27.065 96.364 26.915C96.614 26.755 96.824 26.525 96.994 26.225L99.064 27.125ZM101.504 20.84C101.304 20.84 101.119 20.805 100.949 20.735C100.779 20.655 100.629 20.555 100.499 20.435C100.379 20.305 100.279 20.155 100.199 19.985C100.129 19.815 100.094 19.63 100.094 19.43C100.094 19.24 100.129 19.06 100.199 18.89C100.279 18.71 100.379 18.56 100.499 18.44C100.629 18.31 100.779 18.21 100.949 18.14C101.119 18.06 101.304 18.02 101.504 18.02C101.694 18.02 101.874 18.06 102.044 18.14C102.224 18.21 102.374 18.31 102.494 18.44C102.624 18.56 102.724 18.71 102.794 18.89C102.874 19.06 102.914 19.24 102.914 19.43C102.914 19.63 102.874 19.815 102.794 19.985C102.724 20.155 102.624 20.305 102.494 20.435C102.374 20.555 102.224 20.655 102.044 20.735C101.874 20.805 101.694 20.84 101.504 20.84ZM100.379 29V21.65H102.629V29H100.379ZM108.771 28.34H108.621C108.381 28.6 108.106 28.815 107.796 28.985C107.496 29.155 107.106 29.24 106.626 29.24C106.256 29.24 105.906 29.18 105.576 29.06C105.256 28.94 104.971 28.77 104.721 28.55C104.481 28.33 104.291 28.065 104.151 27.755C104.011 27.445 103.941 27.1 103.941 26.72C103.941 26.35 104.016 26.015 104.166 25.715C104.316 25.405 104.521 25.14 104.781 24.92C105.041 24.7 105.346 24.53 105.696 24.41C106.056 24.29 106.446 24.23 106.866 24.23C107.316 24.23 107.686 24.26 107.976 24.32C108.276 24.38 108.541 24.45 108.771 24.53V24.335C108.771 24.015 108.636 23.745 108.366 23.525C108.106 23.295 107.751 23.18 107.301 23.18C106.651 23.18 106.091 23.445 105.621 23.975L104.091 22.895C104.511 22.395 104.996 22.025 105.546 21.785C106.106 21.535 106.721 21.41 107.391 21.41C108.591 21.41 109.496 21.68 110.106 22.22C110.716 22.75 111.021 23.56 111.021 24.65V29H108.771V28.34ZM108.771 26.105C108.541 26.015 108.311 25.945 108.081 25.895C107.861 25.845 107.631 25.82 107.391 25.82C106.991 25.82 106.691 25.905 106.491 26.075C106.291 26.235 106.191 26.445 106.191 26.705C106.191 26.965 106.286 27.175 106.476 27.335C106.666 27.485 106.916 27.56 107.226 27.56C107.476 27.56 107.696 27.52 107.886 27.44C108.086 27.35 108.251 27.235 108.381 27.095C108.511 26.955 108.606 26.8 108.666 26.63C108.736 26.45 108.771 26.275 108.771 26.105ZM113.242 23.54H111.952V21.65H113.242V19.4H115.492V21.65H117.307V23.54H115.492V26.015C115.492 26.175 115.512 26.325 115.552 26.465C115.592 26.595 115.662 26.705 115.762 26.795C115.912 26.925 116.107 26.99 116.347 26.99C116.507 26.99 116.642 26.97 116.752 26.93C116.862 26.89 116.957 26.84 117.037 26.78L117.667 28.73C117.407 28.85 117.127 28.945 116.827 29.015C116.527 29.085 116.207 29.12 115.867 29.12C115.077 29.12 114.452 28.89 113.992 28.43C113.752 28.19 113.567 27.895 113.437 27.545C113.307 27.185 113.242 26.79 113.242 26.36V23.54ZM125.841 27.215C125.481 27.845 125.006 28.34 124.416 28.7C123.836 29.06 123.131 29.24 122.301 29.24C121.731 29.24 121.201 29.145 120.711 28.955C120.231 28.755 119.811 28.48 119.451 28.13C119.091 27.78 118.811 27.37 118.611 26.9C118.411 26.42 118.311 25.895 118.311 25.325C118.311 24.795 118.411 24.295 118.611 23.825C118.811 23.345 119.086 22.93 119.436 22.58C119.796 22.22 120.211 21.935 120.681 21.725C121.161 21.515 121.681 21.41 122.241 21.41C122.851 21.41 123.386 21.51 123.846 21.71C124.316 21.91 124.706 22.185 125.016 22.535C125.326 22.875 125.561 23.28 125.721 23.75C125.881 24.21 125.961 24.705 125.961 25.235C125.961 25.315 125.956 25.395 125.946 25.475C125.946 25.555 125.941 25.625 125.931 25.685C125.921 25.755 125.916 25.82 125.916 25.88H120.501C120.611 26.36 120.836 26.71 121.176 26.93C121.516 27.15 121.896 27.26 122.316 27.26C122.736 27.26 123.081 27.17 123.351 26.99C123.631 26.81 123.851 26.58 124.011 26.3L125.841 27.215ZM123.846 24.35C123.826 24.23 123.776 24.1 123.696 23.96C123.626 23.82 123.521 23.695 123.381 23.585C123.251 23.465 123.086 23.37 122.886 23.3C122.696 23.22 122.481 23.18 122.241 23.18C121.891 23.18 121.566 23.28 121.266 23.48C120.966 23.68 120.746 23.97 120.606 24.35H123.846ZM132.7 28.19H132.55C132.38 28.48 132.115 28.73 131.755 28.94C131.405 29.14 130.96 29.24 130.42 29.24C129.95 29.24 129.5 29.145 129.07 28.955C128.64 28.765 128.26 28.5 127.93 28.16C127.61 27.81 127.355 27.395 127.165 26.915C126.975 26.435 126.88 25.905 126.88 25.325C126.88 24.745 126.975 24.215 127.165 23.735C127.355 23.255 127.61 22.845 127.93 22.505C128.26 22.155 128.64 21.885 129.07 21.695C129.5 21.505 129.95 21.41 130.42 21.41C130.96 21.41 131.405 21.515 131.755 21.725C132.115 21.925 132.38 22.17 132.55 22.46H132.7L132.55 21.41V18.26H134.8V29H132.7V28.19ZM130.915 27.14C131.155 27.14 131.38 27.1 131.59 27.02C131.81 26.93 132 26.81 132.16 26.66C132.33 26.5 132.46 26.31 132.55 26.09C132.65 25.86 132.7 25.605 132.7 25.325C132.7 25.045 132.65 24.795 132.55 24.575C132.46 24.355 132.33 24.165 132.16 24.005C132 23.845 131.81 23.725 131.59 23.645C131.38 23.555 131.155 23.51 130.915 23.51C130.675 23.51 130.445 23.555 130.225 23.645C130.015 23.725 129.825 23.845 129.655 24.005C129.495 24.165 129.365 24.355 129.265 24.575C129.175 24.795 129.13 25.045 129.13 25.325C129.13 25.605 129.175 25.86 129.265 26.09C129.365 26.31 129.495 26.5 129.655 26.66C129.825 26.81 130.015 26.93 130.225 27.02C130.445 27.1 130.675 27.14 130.915 27.14ZM139 21.65H141.58L142.585 25.79H142.735L144.04 21.65H146.35L147.64 25.79H147.79L148.78 21.65H151.33L148.99 29H146.53L145.225 24.86H145.075L143.785 29H141.34L139 21.65ZM153.477 20.84C153.277 20.84 153.092 20.805 152.922 20.735C152.752 20.655 152.602 20.555 152.472 20.435C152.352 20.305 152.252 20.155 152.172 19.985C152.102 19.815 152.067 19.63 152.067 19.43C152.067 19.24 152.102 19.06 152.172 18.89C152.252 18.71 152.352 18.56 152.472 18.44C152.602 18.31 152.752 18.21 152.922 18.14C153.092 18.06 153.277 18.02 153.477 18.02C153.667 18.02 153.847 18.06 154.017 18.14C154.197 18.21 154.347 18.31 154.467 18.44C154.597 18.56 154.697 18.71 154.767 18.89C154.847 19.06 154.887 19.24 154.887 19.43C154.887 19.63 154.847 19.815 154.767 19.985C154.697 20.155 154.597 20.305 154.467 20.435C154.347 20.555 154.197 20.655 154.017 20.735C153.847 20.805 153.667 20.84 153.477 20.84ZM152.352 29V21.65H154.602V29H152.352ZM157.143 23.54H155.853V21.65H157.143V19.4H159.393V21.65H161.208V23.54H159.393V26.015C159.393 26.175 159.413 26.325 159.453 26.465C159.493 26.595 159.563 26.705 159.663 26.795C159.813 26.925 160.008 26.99 160.248 26.99C160.408 26.99 160.543 26.97 160.653 26.93C160.763 26.89 160.858 26.84 160.938 26.78L161.568 28.73C161.308 28.85 161.028 28.945 160.728 29.015C160.428 29.085 160.108 29.12 159.768 29.12C158.978 29.12 158.353 28.89 157.893 28.43C157.653 28.19 157.468 27.895 157.338 27.545C157.208 27.185 157.143 26.79 157.143 26.36V23.54ZM162.778 18.26H165.028V21.08L164.878 22.58H165.028C165.258 22.22 165.563 21.935 165.943 21.725C166.323 21.515 166.753 21.41 167.233 21.41C168.163 21.41 168.858 21.69 169.318 22.25C169.778 22.81 170.008 23.6 170.008 24.62V29H167.758V24.875C167.758 24.475 167.663 24.15 167.473 23.9C167.283 23.64 166.988 23.51 166.588 23.51C166.078 23.51 165.688 23.705 165.418 24.095C165.158 24.485 165.028 24.995 165.028 25.625V29H162.778V18.26ZM177.262 28.685L174.142 21.65H176.737L178.432 25.7H178.582L180.202 21.65H182.737L178.132 32.24H175.672L177.262 28.685ZM186.885 21.41C187.455 21.41 187.98 21.51 188.46 21.71C188.95 21.9 189.37 22.17 189.72 22.52C190.08 22.86 190.355 23.27 190.545 23.75C190.745 24.23 190.845 24.755 190.845 25.325C190.845 25.895 190.745 26.42 190.545 26.9C190.355 27.38 190.08 27.795 189.72 28.145C189.37 28.485 188.95 28.755 188.46 28.955C187.98 29.145 187.455 29.24 186.885 29.24C186.315 29.24 185.785 29.145 185.295 28.955C184.815 28.755 184.395 28.485 184.035 28.145C183.685 27.795 183.41 27.38 183.21 26.9C183.02 26.42 182.925 25.895 182.925 25.325C182.925 24.755 183.02 24.23 183.21 23.75C183.41 23.27 183.685 22.86 184.035 22.52C184.395 22.17 184.815 21.9 185.295 21.71C185.785 21.51 186.315 21.41 186.885 21.41ZM186.885 27.14C187.115 27.14 187.33 27.1 187.53 27.02C187.74 26.93 187.925 26.81 188.085 26.66C188.245 26.5 188.37 26.31 188.46 26.09C188.55 25.86 188.595 25.605 188.595 25.325C188.595 25.045 188.55 24.795 188.46 24.575C188.37 24.355 188.245 24.165 188.085 24.005C187.925 23.845 187.74 23.725 187.53 23.645C187.33 23.555 187.115 23.51 186.885 23.51C186.655 23.51 186.435 23.555 186.225 23.645C186.025 23.725 185.845 23.845 185.685 24.005C185.525 24.165 185.4 24.355 185.31 24.575C185.22 24.795 185.175 25.045 185.175 25.325C185.175 25.605 185.22 25.86 185.31 26.09C185.4 26.31 185.525 26.5 185.685 26.66C185.845 26.81 186.025 26.93 186.225 27.02C186.435 27.1 186.655 27.14 186.885 27.14ZM197.101 28.07H196.951C196.451 28.85 195.701 29.24 194.701 29.24C193.781 29.24 193.096 28.945 192.646 28.355C192.196 27.765 191.971 26.99 191.971 26.03V21.65H194.221V25.775C194.221 26.175 194.316 26.505 194.506 26.765C194.696 27.015 194.991 27.14 195.391 27.14C195.901 27.14 196.286 26.945 196.546 26.555C196.816 26.165 196.951 25.655 196.951 25.025V21.65H199.201V29H197.101V28.07ZM200.879 21.65H202.979V22.58H203.129C203.329 22.26 203.614 21.99 203.984 21.77C204.354 21.55 204.764 21.44 205.214 21.44C205.484 21.44 205.719 21.475 205.919 21.545C206.119 21.605 206.284 21.675 206.414 21.755L205.829 23.735C205.699 23.665 205.559 23.61 205.409 23.57C205.269 23.53 205.084 23.51 204.854 23.51C204.294 23.51 203.864 23.705 203.564 24.095C203.274 24.485 203.129 24.995 203.129 25.625V29H200.879V21.65ZM215.016 28.34H214.866C214.626 28.6 214.351 28.815 214.041 28.985C213.741 29.155 213.351 29.24 212.871 29.24C212.501 29.24 212.151 29.18 211.821 29.06C211.501 28.94 211.216 28.77 210.966 28.55C210.726 28.33 210.536 28.065 210.396 27.755C210.256 27.445 210.186 27.1 210.186 26.72C210.186 26.35 210.261 26.015 210.411 25.715C210.561 25.405 210.766 25.14 211.026 24.92C211.286 24.7 211.591 24.53 211.941 24.41C212.301 24.29 212.691 24.23 213.111 24.23C213.561 24.23 213.931 24.26 214.221 24.32C214.521 24.38 214.786 24.45 215.016 24.53V24.335C215.016 24.015 214.881 23.745 214.611 23.525C214.351 23.295 213.996 23.18 213.546 23.18C212.896 23.18 212.336 23.445 211.866 23.975L210.336 22.895C210.756 22.395 211.241 22.025 211.791 21.785C212.351 21.535 212.966 21.41 213.636 21.41C214.836 21.41 215.741 21.68 216.351 22.22C216.961 22.75 217.266 23.56 217.266 24.65V29H215.016V28.34ZM215.016 26.105C214.786 26.015 214.556 25.945 214.326 25.895C214.106 25.845 213.876 25.82 213.636 25.82C213.236 25.82 212.936 25.905 212.736 26.075C212.536 26.235 212.436 26.445 212.436 26.705C212.436 26.965 212.531 27.175 212.721 27.335C212.911 27.485 213.161 27.56 213.471 27.56C213.721 27.56 213.941 27.52 214.131 27.44C214.331 27.35 214.496 27.235 214.626 27.095C214.756 26.955 214.851 26.8 214.911 26.63C214.981 26.45 215.016 26.275 215.016 26.105ZM225.89 27.125C225.53 27.785 225.05 28.305 224.45 28.685C223.86 29.055 223.14 29.24 222.29 29.24C221.72 29.24 221.19 29.145 220.7 28.955C220.22 28.755 219.8 28.485 219.44 28.145C219.09 27.795 218.815 27.38 218.615 26.9C218.425 26.42 218.33 25.895 218.33 25.325C218.33 24.755 218.425 24.23 218.615 23.75C218.815 23.27 219.09 22.86 219.44 22.52C219.8 22.17 220.22 21.9 220.7 21.71C221.19 21.51 221.72 21.41 222.29 21.41C223.13 21.41 223.85 21.595 224.45 21.965C225.06 22.335 225.51 22.845 225.8 23.495L223.73 24.365C223.57 24.075 223.375 23.86 223.145 23.72C222.925 23.58 222.64 23.51 222.29 23.51C221.8 23.51 221.39 23.675 221.06 24.005C220.74 24.325 220.58 24.765 220.58 25.325C220.58 25.885 220.74 26.33 221.06 26.66C221.39 26.98 221.8 27.14 222.29 27.14C222.64 27.14 222.94 27.065 223.19 26.915C223.44 26.755 223.65 26.525 223.82 26.225L225.89 27.125ZM234.152 27.125C233.792 27.785 233.312 28.305 232.712 28.685C232.122 29.055 231.402 29.24 230.552 29.24C229.982 29.24 229.452 29.145 228.962 28.955C228.482 28.755 228.062 28.485 227.702 28.145C227.352 27.795 227.077 27.38 226.877 26.9C226.687 26.42 226.592 25.895 226.592 25.325C226.592 24.755 226.687 24.23 226.877 23.75C227.077 23.27 227.352 22.86 227.702 22.52C228.062 22.17 228.482 21.9 228.962 21.71C229.452 21.51 229.982 21.41 230.552 21.41C231.392 21.41 232.112 21.595 232.712 21.965C233.322 22.335 233.772 22.845 234.062 23.495L231.992 24.365C231.832 24.075 231.637 23.86 231.407 23.72C231.187 23.58 230.902 23.51 230.552 23.51C230.062 23.51 229.652 23.675 229.322 24.005C229.002 24.325 228.842 24.765 228.842 25.325C228.842 25.885 229.002 26.33 229.322 26.66C229.652 26.98 230.062 27.14 230.552 27.14C230.902 27.14 231.202 27.065 231.452 26.915C231.702 26.755 231.912 26.525 232.082 26.225L234.152 27.125ZM238.814 21.41C239.384 21.41 239.909 21.51 240.389 21.71C240.879 21.9 241.299 22.17 241.649 22.52C242.009 22.86 242.284 23.27 242.474 23.75C242.674 24.23 242.774 24.755 242.774 25.325C242.774 25.895 242.674 26.42 242.474 26.9C242.284 27.38 242.009 27.795 241.649 28.145C241.299 28.485 240.879 28.755 240.389 28.955C239.909 29.145 239.384 29.24 238.814 29.24C238.244 29.24 237.714 29.145 237.224 28.955C236.744 28.755 236.324 28.485 235.964 28.145C235.614 27.795 235.339 27.38 235.139 26.9C234.949 26.42 234.854 25.895 234.854 25.325C234.854 24.755 234.949 24.23 235.139 23.75C235.339 23.27 235.614 22.86 235.964 22.52C236.324 22.17 236.744 21.9 237.224 21.71C237.714 21.51 238.244 21.41 238.814 21.41ZM238.814 27.14C239.044 27.14 239.259 27.1 239.459 27.02C239.669 26.93 239.854 26.81 240.014 26.66C240.174 26.5 240.299 26.31 240.389 26.09C240.479 25.86 240.524 25.605 240.524 25.325C240.524 25.045 240.479 24.795 240.389 24.575C240.299 24.355 240.174 24.165 240.014 24.005C239.854 23.845 239.669 23.725 239.459 23.645C239.259 23.555 239.044 23.51 238.814 23.51C238.584 23.51 238.364 23.555 238.154 23.645C237.954 23.725 237.774 23.845 237.614 24.005C237.454 24.165 237.329 24.355 237.239 24.575C237.149 24.795 237.104 25.045 237.104 25.325C237.104 25.605 237.149 25.86 237.239 26.09C237.329 26.31 237.454 26.5 237.614 26.66C237.774 26.81 237.954 26.93 238.154 27.02C238.364 27.1 238.584 27.14 238.814 27.14ZM249.03 28.07H248.88C248.38 28.85 247.63 29.24 246.63 29.24C245.71 29.24 245.025 28.945 244.575 28.355C244.125 27.765 243.9 26.99 243.9 26.03V21.65H246.15V25.775C246.15 26.175 246.245 26.505 246.435 26.765C246.625 27.015 246.92 27.14 247.32 27.14C247.83 27.14 248.215 26.945 248.475 26.555C248.745 26.165 248.88 25.655 248.88 25.025V21.65H251.13V29H249.03V28.07ZM254.908 22.58H255.058C255.558 21.8 256.308 21.41 257.308 21.41C258.228 21.41 258.913 21.705 259.363 22.295C259.813 22.885 260.038 23.66 260.038 24.62V29H257.788V24.875C257.788 24.475 257.693 24.15 257.503 23.9C257.313 23.64 257.018 23.51 256.618 23.51C256.108 23.51 255.718 23.705 255.448 24.095C255.188 24.485 255.058 24.995 255.058 25.625V29H252.808V21.65H254.908V22.58ZM262.085 23.54H260.795V21.65H262.085V19.4H264.335V21.65H266.15V23.54H264.335V26.015C264.335 26.175 264.355 26.325 264.395 26.465C264.435 26.595 264.505 26.705 264.605 26.795C264.755 26.925 264.95 26.99 265.19 26.99C265.35 26.99 265.485 26.97 265.595 26.93C265.705 26.89 265.8 26.84 265.88 26.78L266.51 28.73C266.25 28.85 265.97 28.945 265.67 29.015C265.37 29.085 265.05 29.12 264.71 29.12C263.92 29.12 263.295 28.89 262.835 28.43C262.595 28.19 262.41 27.895 262.28 27.545C262.15 27.185 262.085 26.79 262.085 26.36V23.54Z" fill="url(#paint0_linear_40_2)"/>
</g>
<defs>
<filter id="filter0_i_40_2" x="0.420013" y="0.0200195" width="344.214" height="36.22" filterUnits="userSpaceOnUse" color-interpolation-filters="sRGB">
<feFlood flood-opacity="0" result="BackgroundImageFix"/>
<feBlend mode="normal" in="SourceGraphic" in2="BackgroundImageFix" result="shape"/>
<feColorMatrix in="SourceAlpha" type="matrix" values="0 0 0 0 0 0 0 0 0 0 0 0 0 0 0 0 0 0 127 0" result="hardAlpha"/>
<feOffset dy="4"/>
<feGaussianBlur stdDeviation="2"/>
<feComposite in2="hardAlpha" operator="arithmetic" k2="-1" k3="1"/>
<feColorMatrix type="matrix" values="0 0 0 0 0.357083 0 0 0 0 0.0643526 0 0 0 0 0.0643526 0 0 0 0.25 0"/>
<feBlend mode="normal" in2="shape" result="effect1_innerShadow_40_2"/>
</filter>
<linearGradient id="paint0_linear_40_2" x1="-31.7217" y1="-3" x2="31.4661" y2="209.208" gradientUnits="userSpaceOnUse">
<stop stop-color="#395886"/>
<stop offset="1" stop-color="#628ECB"/>
</linearGradient>
</defs>
</svg>
