<svg width="413" height="157" viewBox="0 0 413 157" fill="none" xmlns="http://www.w3.org/2000/svg">
<g filter="url(#filter0_i_40_2)">
<path d="M0.76 0.719998H38.52V12.56H13.24V24.08H35.96V35.92H13.24V58H0.76V0.719998ZM62.0319 17.52C65.0719 17.52 67.8719 18.0533 70.4319 19.12C73.0452 20.1333 75.2852 21.5733 77.1519 23.44C79.0719 25.2533 80.5385 27.44 81.5519 30C82.6185 32.56 83.1519 35.36 83.1519 38.4C83.1519 41.44 82.6185 44.24 81.5519 46.8C80.5385 49.36 79.0719 51.5733 77.1519 53.44C75.2852 55.2533 73.0452 56.6933 70.4319 57.76C67.8719 58.7733 65.0719 59.28 62.0319 59.28C58.9919 59.28 56.1652 58.7733 53.5519 57.76C50.9919 56.6933 48.7519 55.2533 46.8319 53.44C44.9652 51.5733 43.4985 49.36 42.4319 46.8C41.4185 44.24 40.9119 41.44 40.9119 38.4C40.9119 35.36 41.4185 32.56 42.4319 30C43.4985 27.44 44.9652 25.2533 46.8319 23.44C48.7519 21.5733 50.9919 20.1333 53.5519 19.12C56.1652 18.0533 58.9919 17.52 62.0319 17.52ZM62.0319 48.08C63.2585 48.08 64.4052 47.8667 65.4719 47.44C66.5919 46.96 67.5785 46.32 68.4319 45.52C69.2852 44.6667 69.9519 43.6533 70.4319 42.48C70.9119 41.2533 71.1519 39.8933 71.1519 38.4C71.1519 36.9067 70.9119 35.5733 70.4319 34.4C69.9519 33.2267 69.2852 32.2133 68.4319 31.36C67.5785 30.5067 66.5919 29.8667 65.4719 29.44C64.4052 28.96 63.2585 28.72 62.0319 28.72C60.8052 28.72 59.6319 28.96 58.5119 29.44C57.4452 29.8667 56.4852 30.5067 55.6319 31.36C54.7785 32.2133 54.1119 33.2267 53.6319 34.4C53.1519 35.5733 52.9119 36.9067 52.9119 38.4C52.9119 39.8933 53.1519 41.2533 53.6319 42.48C54.1119 43.6533 54.7785 44.6667 55.6319 45.52C56.4852 46.32 57.4452 46.96 58.5119 47.44C59.6319 47.8667 60.8052 48.08 62.0319 48.08ZM89.0894 18.8H100.289V23.76H101.089C102.156 22.0533 103.676 20.6133 105.649 19.44C107.623 18.2667 109.809 17.68 112.209 17.68C113.649 17.68 114.903 17.8667 115.969 18.24C117.036 18.56 117.916 18.9333 118.609 19.36L115.489 29.92C114.796 29.5467 114.049 29.2533 113.249 29.04C112.503 28.8267 111.516 28.72 110.289 28.72C107.303 28.72 105.009 29.76 103.409 31.84C101.863 33.92 101.089 36.64 101.089 40V58H89.0894V18.8ZM139.835 76.56C137.008 76.56 134.475 76.1867 132.235 75.44C129.995 74.7467 128.022 73.8133 126.315 72.64C124.662 71.52 123.275 70.24 122.155 68.8C121.088 67.4133 120.288 66 119.755 64.56L131.275 60C132.022 62.0267 133.195 63.52 134.795 64.48C136.395 65.4933 138.075 66 139.835 66C142.715 66 145.035 65.0667 146.795 63.2C148.608 61.3333 149.515 58.6667 149.515 55.2V53.04H148.715C146.262 56.3467 142.528 58 137.515 58C135.275 58 133.062 57.5467 130.875 56.64C128.688 55.68 126.715 54.3467 124.955 52.64C123.195 50.88 121.782 48.7467 120.715 46.24C119.648 43.7333 119.115 40.9067 119.115 37.76C119.115 34.6133 119.648 31.7867 120.715 29.28C121.782 26.7733 123.195 24.6667 124.955 22.96C126.715 21.2 128.688 19.8667 130.875 18.96C133.062 18 135.275 17.52 137.515 17.52C142.528 17.52 146.262 19.1733 148.715 22.48H149.515V18.8H161.035V54.64C161.035 57.84 160.528 60.7733 159.515 63.44C158.555 66.16 157.142 68.48 155.275 70.4C153.462 72.3733 151.248 73.8933 148.635 74.96C146.022 76.0267 143.088 76.56 139.835 76.56ZM140.315 47.12C141.435 47.12 142.528 46.9333 143.595 46.56C144.715 46.1333 145.702 45.5467 146.555 44.8C147.462 44 148.182 43.0133 148.715 41.84C149.248 40.6667 149.515 39.3067 149.515 37.76C149.515 36.2133 149.248 34.8533 148.715 33.68C148.182 32.5067 147.462 31.5467 146.555 30.8C145.702 30 144.715 29.4133 143.595 29.04C142.528 28.6133 141.435 28.4 140.315 28.4C139.195 28.4 138.075 28.6133 136.955 29.04C135.888 29.4133 134.902 30 133.995 30.8C133.142 31.5467 132.448 32.5067 131.915 33.68C131.382 34.8533 131.115 36.2133 131.115 37.76C131.115 39.3067 131.382 40.6667 131.915 41.84C132.448 43.0133 133.142 44 133.995 44.8C134.902 45.5467 135.888 46.1333 136.955 46.56C138.075 46.9333 139.195 47.12 140.315 47.12ZM188.516 17.52C191.556 17.52 194.356 18.0533 196.916 19.12C199.53 20.1333 201.77 21.5733 203.636 23.44C205.556 25.2533 207.023 27.44 208.036 30C209.103 32.56 209.636 35.36 209.636 38.4C209.636 41.44 209.103 44.24 208.036 46.8C207.023 49.36 205.556 51.5733 203.636 53.44C201.77 55.2533 199.53 56.6933 196.916 57.76C194.356 58.7733 191.556 59.28 188.516 59.28C185.476 59.28 182.65 58.7733 180.036 57.76C177.476 56.6933 175.236 55.2533 173.316 53.44C171.45 51.5733 169.983 49.36 168.916 46.8C167.903 44.24 167.396 41.44 167.396 38.4C167.396 35.36 167.903 32.56 168.916 30C169.983 27.44 171.45 25.2533 173.316 23.44C175.236 21.5733 177.476 20.1333 180.036 19.12C182.65 18.0533 185.476 17.52 188.516 17.52ZM188.516 48.08C189.743 48.08 190.89 47.8667 191.956 47.44C193.076 46.96 194.063 46.32 194.916 45.52C195.77 44.6667 196.436 43.6533 196.916 42.48C197.396 41.2533 197.636 39.8933 197.636 38.4C197.636 36.9067 197.396 35.5733 196.916 34.4C196.436 33.2267 195.77 32.2133 194.916 31.36C194.063 30.5067 193.076 29.8667 191.956 29.44C190.89 28.96 189.743 28.72 188.516 28.72C187.29 28.72 186.116 28.96 184.996 29.44C183.93 29.8667 182.97 30.5067 182.116 31.36C181.263 32.2133 180.596 33.2267 180.116 34.4C179.636 35.5733 179.396 36.9067 179.396 38.4C179.396 39.8933 179.636 41.2533 180.116 42.48C180.596 43.6533 181.263 44.6667 182.116 45.52C182.97 46.32 183.93 46.96 184.996 47.44C186.116 47.8667 187.29 48.08 188.516 48.08ZM219.503 28.88H212.623V18.8H219.503V6.8H231.503V18.8H241.183V28.88H231.503V42.08C231.503 42.9333 231.61 43.7333 231.823 44.48C232.036 45.1733 232.41 45.76 232.943 46.24C233.743 46.9333 234.783 47.28 236.063 47.28C236.916 47.28 237.636 47.1733 238.223 46.96C238.81 46.7467 239.316 46.48 239.743 46.16L243.103 56.56C241.716 57.2 240.223 57.7067 238.623 58.08C237.023 58.4533 235.316 58.64 233.503 58.64C229.29 58.64 225.956 57.4133 223.503 54.96C222.223 53.68 221.236 52.1067 220.543 50.24C219.85 48.32 219.503 46.2133 219.503 43.92V28.88ZM0.76 155V97.72H21.24C24.1733 97.72 26.8667 98.1733 29.32 99.08C31.8267 99.9867 33.9867 101.267 35.8 102.92C37.6133 104.52 39.0267 106.467 40.04 108.76C41.0533 111.053 41.56 113.587 41.56 116.36C41.56 119.133 41.0533 121.667 40.04 123.96C39.0267 126.253 37.6133 128.227 35.8 129.88C33.9867 131.48 31.8267 132.733 29.32 133.64C26.8667 134.547 24.1733 135 21.24 135H13.24V155H0.76ZM21.64 123.16C24.2533 123.16 26.2 122.52 27.48 121.24C28.76 119.96 29.4 118.333 29.4 116.36C29.4 114.387 28.76 112.76 27.48 111.48C26.2 110.2 24.2533 109.56 21.64 109.56H13.24V123.16H21.64ZM69.9531 151.48H69.1531C67.8731 152.867 66.4065 154.013 64.7531 154.92C63.1531 155.827 61.0731 156.28 58.5131 156.28C56.5398 156.28 54.6731 155.96 52.9131 155.32C51.2065 154.68 49.6865 153.773 48.3531 152.6C47.0731 151.427 46.0598 150.013 45.3131 148.36C44.5665 146.707 44.1931 144.867 44.1931 142.84C44.1931 140.867 44.5931 139.08 45.3931 137.48C46.1931 135.827 47.2865 134.413 48.6731 133.24C50.0598 132.067 51.6865 131.16 53.5531 130.52C55.4731 129.88 57.5531 129.56 59.7931 129.56C62.1931 129.56 64.1665 129.72 65.7131 130.04C67.3131 130.36 68.7265 130.733 69.9531 131.16V130.12C69.9531 128.413 69.2331 126.973 67.7931 125.8C66.4065 124.573 64.5131 123.96 62.1131 123.96C58.6465 123.96 55.6598 125.373 53.1531 128.2L44.9931 122.44C47.2331 119.773 49.8198 117.8 52.7531 116.52C55.7398 115.187 59.0198 114.52 62.5931 114.52C68.9931 114.52 73.8198 115.96 77.0731 118.84C80.3265 121.667 81.9531 125.987 81.9531 131.8V155H69.9531V151.48ZM69.9531 139.56C68.7265 139.08 67.4998 138.707 66.2731 138.44C65.0998 138.173 63.8731 138.04 62.5931 138.04C60.4598 138.04 58.8598 138.493 57.7931 139.4C56.7265 140.253 56.1931 141.373 56.1931 142.76C56.1931 144.147 56.6998 145.267 57.7131 146.12C58.7265 146.92 60.0598 147.32 61.7131 147.32C63.0465 147.32 64.2198 147.107 65.2331 146.68C66.2998 146.2 67.1798 145.587 67.8731 144.84C68.5665 144.093 69.0731 143.267 69.3931 142.36C69.7665 141.4 69.9531 140.467 69.9531 139.56ZM106.031 156.28C103.311 156.28 100.911 155.96 98.8306 155.32C96.7506 154.68 94.9373 153.853 93.3906 152.84C91.8973 151.773 90.644 150.573 89.6306 149.24C88.6173 147.853 87.844 146.467 87.3106 145.08L98.1106 140.52C98.8573 142.333 99.8973 143.667 101.231 144.52C102.564 145.32 104.164 145.72 106.031 145.72C107.631 145.72 108.857 145.48 109.711 145C110.617 144.467 111.071 143.8 111.071 143C111.071 142.093 110.644 141.4 109.791 140.92C108.937 140.387 107.577 139.907 105.711 139.48L100.351 138.36C99.0706 138.093 97.764 137.667 96.4306 137.08C95.0973 136.493 93.8706 135.72 92.7506 134.76C91.6306 133.8 90.724 132.68 90.0306 131.4C89.3373 130.067 88.9906 128.547 88.9906 126.84C88.9906 124.973 89.3906 123.293 90.1906 121.8C91.044 120.253 92.1906 118.947 93.6306 117.88C95.0706 116.813 96.7773 115.987 98.7506 115.4C100.724 114.813 102.884 114.52 105.231 114.52C109.284 114.52 112.777 115.24 115.711 116.68C118.644 118.067 120.857 120.413 122.351 123.72L112.031 127.96C111.337 126.573 110.351 125.56 109.071 124.92C107.844 124.28 106.591 123.96 105.311 123.96C103.924 123.96 102.804 124.2 101.951 124.68C101.097 125.16 100.671 125.747 100.671 126.44C100.671 127.187 101.097 127.8 101.951 128.28C102.857 128.707 103.951 129.08 105.231 129.4L111.311 130.84C115.311 131.8 118.297 133.347 120.271 135.48C122.244 137.613 123.231 140.12 123.231 143C123.231 144.76 122.804 146.44 121.951 148.04C121.151 149.64 119.977 151.053 118.431 152.28C116.937 153.507 115.124 154.467 112.991 155.16C110.911 155.907 108.591 156.28 106.031 156.28ZM145.796 156.28C143.076 156.28 140.676 155.96 138.596 155.32C136.516 154.68 134.703 153.853 133.156 152.84C131.663 151.773 130.41 150.573 129.396 149.24C128.383 147.853 127.61 146.467 127.076 145.08L137.876 140.52C138.623 142.333 139.663 143.667 140.996 144.52C142.33 145.32 143.93 145.72 145.796 145.72C147.396 145.72 148.623 145.48 149.476 145C150.383 144.467 150.836 143.8 150.836 143C150.836 142.093 150.41 141.4 149.556 140.92C148.703 140.387 147.343 139.907 145.476 139.48L140.116 138.36C138.836 138.093 137.53 137.667 136.196 137.08C134.863 136.493 133.636 135.72 132.516 134.76C131.396 133.8 130.49 132.68 129.796 131.4C129.103 130.067 128.756 128.547 128.756 126.84C128.756 124.973 129.156 123.293 129.956 121.8C130.81 120.253 131.956 118.947 133.396 117.88C134.836 116.813 136.543 115.987 138.516 115.4C140.49 114.813 142.65 114.52 144.996 114.52C149.05 114.52 152.543 115.24 155.476 116.68C158.41 118.067 160.623 120.413 162.116 123.72L151.796 127.96C151.103 126.573 150.116 125.56 148.836 124.92C147.61 124.28 146.356 123.96 145.076 123.96C143.69 123.96 142.57 124.2 141.716 124.68C140.863 125.16 140.436 125.747 140.436 126.44C140.436 127.187 140.863 127.8 141.716 128.28C142.623 128.707 143.716 129.08 144.996 129.4L151.076 130.84C155.076 131.8 158.063 133.347 160.036 135.48C162.01 137.613 162.996 140.12 162.996 143C162.996 144.76 162.57 146.44 161.716 148.04C160.916 149.64 159.743 151.053 158.196 152.28C156.703 153.507 154.89 154.467 152.756 155.16C150.676 155.907 148.356 156.28 145.796 156.28ZM165.242 115.8H179.002L184.362 137.88H185.162L192.122 115.8H204.442L211.322 137.88H212.122L217.402 115.8H231.002L218.522 155H205.402L198.442 132.92H197.642L190.762 155H177.722L165.242 115.8ZM253.907 114.52C256.947 114.52 259.747 115.053 262.307 116.12C264.92 117.133 267.16 118.573 269.027 120.44C270.947 122.253 272.414 124.44 273.427 127C274.494 129.56 275.027 132.36 275.027 135.4C275.027 138.44 274.494 141.24 273.427 143.8C272.414 146.36 270.947 148.573 269.027 150.44C267.16 152.253 264.92 153.693 262.307 154.76C259.747 155.773 256.947 156.28 253.907 156.28C250.867 156.28 248.04 155.773 245.427 154.76C242.867 153.693 240.627 152.253 238.707 150.44C236.84 148.573 235.374 146.36 234.307 143.8C233.294 141.24 232.787 138.44 232.787 135.4C232.787 132.36 233.294 129.56 234.307 127C235.374 124.44 236.84 122.253 238.707 120.44C240.627 118.573 242.867 117.133 245.427 116.12C248.04 115.053 250.867 114.52 253.907 114.52ZM253.907 145.08C255.134 145.08 256.28 144.867 257.347 144.44C258.467 143.96 259.454 143.32 260.307 142.52C261.16 141.667 261.827 140.653 262.307 139.48C262.787 138.253 263.027 136.893 263.027 135.4C263.027 133.907 262.787 132.573 262.307 131.4C261.827 130.227 261.16 129.213 260.307 128.36C259.454 127.507 258.467 126.867 257.347 126.44C256.28 125.96 255.134 125.72 253.907 125.72C252.68 125.72 251.507 125.96 250.387 126.44C249.32 126.867 248.36 127.507 247.507 128.36C246.654 129.213 245.987 130.227 245.507 131.4C245.027 132.573 244.787 133.907 244.787 135.4C244.787 136.893 245.027 138.253 245.507 139.48C245.987 140.653 246.654 141.667 247.507 142.52C248.36 143.32 249.32 143.96 250.387 144.44C251.507 144.867 252.68 145.08 253.907 145.08ZM280.964 115.8H292.164V120.76H292.964C294.031 119.053 295.551 117.613 297.524 116.44C299.498 115.267 301.684 114.68 304.084 114.68C305.524 114.68 306.778 114.867 307.844 115.24C308.911 115.56 309.791 115.933 310.484 116.36L307.364 126.92C306.671 126.547 305.924 126.253 305.124 126.04C304.378 125.827 303.391 125.72 302.164 125.72C299.178 125.72 296.884 126.76 295.284 128.84C293.738 130.92 292.964 133.64 292.964 137V155H280.964V115.8ZM341.639 150.68H340.839C339.933 152.227 338.519 153.56 336.599 154.68C334.733 155.747 332.359 156.28 329.479 156.28C326.973 156.28 324.573 155.773 322.279 154.76C319.986 153.747 317.959 152.333 316.199 150.52C314.493 148.653 313.133 146.44 312.119 143.88C311.106 141.32 310.599 138.493 310.599 135.4C310.599 132.307 311.106 129.48 312.119 126.92C313.133 124.36 314.493 122.173 316.199 120.36C317.959 118.493 319.986 117.053 322.279 116.04C324.573 115.027 326.973 114.52 329.479 114.52C332.359 114.52 334.733 115.08 336.599 116.2C338.519 117.267 339.933 118.573 340.839 120.12H341.639L340.839 114.52V97.72H352.839V155H341.639V150.68ZM332.119 145.08C333.399 145.08 334.599 144.867 335.719 144.44C336.893 143.96 337.906 143.32 338.759 142.52C339.666 141.667 340.359 140.653 340.839 139.48C341.373 138.253 341.639 136.893 341.639 135.4C341.639 133.907 341.373 132.573 340.839 131.4C340.359 130.227 339.666 129.213 338.759 128.36C337.906 127.507 336.893 126.867 335.719 126.44C334.599 125.96 333.399 125.72 332.119 125.72C330.839 125.72 329.613 125.96 328.439 126.44C327.319 126.867 326.306 127.507 325.399 128.36C324.546 129.213 323.853 130.227 323.319 131.4C322.839 132.573 322.599 133.907 322.599 135.4C322.599 136.893 322.839 138.253 323.319 139.48C323.853 140.653 324.546 141.667 325.399 142.52C326.306 143.32 327.319 143.96 328.439 144.44C329.613 144.867 330.839 145.08 332.119 145.08ZM389.802 134.36V132.28C389.802 130.947 389.935 129.72 390.202 128.6C390.469 127.48 390.895 126.413 391.482 125.4C392.069 124.333 392.842 123.293 393.802 122.28C394.815 121.213 396.015 120.067 397.402 118.84C398.735 117.72 399.722 116.707 400.362 115.8C401.002 114.84 401.322 113.747 401.322 112.52C401.322 111.293 400.789 110.173 399.722 109.16C398.709 108.147 397.349 107.64 395.642 107.64C393.615 107.64 391.962 108.227 390.682 109.4C389.455 110.52 388.602 111.933 388.122 113.64L377.802 109.32C378.229 107.72 378.922 106.147 379.882 104.6C380.842 103.053 382.042 101.693 383.482 100.52C384.975 99.2933 386.682 98.3067 388.602 97.56C390.575 96.8133 392.789 96.44 395.242 96.44C397.855 96.44 400.255 96.84 402.442 97.64C404.629 98.44 406.495 99.5333 408.042 100.92C409.589 102.253 410.789 103.853 411.642 105.72C412.549 107.533 413.002 109.507 413.002 111.64C413.002 113.08 412.869 114.387 412.602 115.56C412.335 116.68 411.935 117.747 411.402 118.76C410.869 119.773 410.175 120.787 409.322 121.8C408.522 122.76 407.562 123.773 406.442 124.84C405.482 125.747 404.682 126.573 404.042 127.32C403.455 128.013 403.002 128.707 402.682 129.4C402.362 130.04 402.122 130.733 401.962 131.48C401.855 132.227 401.802 133.08 401.802 134.04V134.36H389.802ZM395.642 155.48C393.509 155.48 391.695 154.733 390.202 153.24C388.709 151.747 387.962 149.933 387.962 147.8C387.962 145.667 388.709 143.853 390.202 142.36C391.695 140.867 393.509 140.12 395.642 140.12C397.775 140.12 399.589 140.867 401.082 142.36C402.575 143.853 403.322 145.667 403.322 147.8C403.322 149.933 402.575 151.747 401.082 153.24C399.589 154.733 397.775 155.48 395.642 155.48Z" fill="url(#paint0_linear_40_2)"/>
</g>
<defs>
<filter id="filter0_i_40_2" x="0.76001" y="0.719971" width="412.242" height="159.56" filterUnits="userSpaceOnUse" color-interpolation-filters="sRGB">
<feFlood flood-opacity="0" result="BackgroundImageFix"/>
<feBlend mode="normal" in="SourceGraphic" in2="BackgroundImageFix" result="shape"/>
<feColorMatrix in="SourceAlpha" type="matrix" values="0 0 0 0 0 0 0 0 0 0 0 0 0 0 0 0 0 0 127 0" result="hardAlpha"/>
<feOffset dy="4"/>
<feGaussianBlur stdDeviation="2"/>
<feComposite in2="hardAlpha" operator="arithmetic" k2="-1" k3="1"/>
<feColorMatrix type="matrix" values="0 0 0 0 0.357083 0 0 0 0 0.0643526 0 0 0 0 0.0643526 0 0 0 0.25 0"/>
<feBlend mode="normal" in2="shape" result="effect1_innerShadow_40_2"/>
</filter>
<linearGradient id="paint0_linear_40_2" x1="-44.2104" y1="-19" x2="94.4069" y2="318.227" gradientUnits="userSpaceOnUse">
<stop offset="0.0283325" stop-color="#B1C9EF"/>
<stop offset="0.8011" stop-color="#628ECB" stop-opacity="0.59"/>
</linearGradient>
</defs>
</svg>
