<svg width="286" height="200" viewBox="0 0 286 200" fill="none" xmlns="http://www.w3.org/2000/svg">
<g filter="url(#filter0_i_40_2)">
<path d="M7.76 1.72H20.24V47.16H44.24V59H7.76V1.72ZM69.5006 18.52C72.5406 18.52 75.3406 19.0533 77.9006 20.12C80.514 21.1333 82.754 22.5733 84.6206 24.44C86.5406 26.2533 88.0073 28.44 89.0206 31C90.0873 33.56 90.6206 36.36 90.6206 39.4C90.6206 42.44 90.0873 45.24 89.0206 47.8C88.0073 50.36 86.5406 52.5733 84.6206 54.44C82.754 56.2533 80.514 57.6933 77.9006 58.76C75.3406 59.7733 72.5406 60.28 69.5006 60.28C66.4606 60.28 63.634 59.7733 61.0206 58.76C58.4606 57.6933 56.2206 56.2533 54.3006 54.44C52.434 52.5733 50.9673 50.36 49.9006 47.8C48.8873 45.24 48.3806 42.44 48.3806 39.4C48.3806 36.36 48.8873 33.56 49.9006 31C50.9673 28.44 52.434 26.2533 54.3006 24.44C56.2206 22.5733 58.4606 21.1333 61.0206 20.12C63.634 19.0533 66.4606 18.52 69.5006 18.52ZM69.5006 49.08C70.7273 49.08 71.874 48.8667 72.9406 48.44C74.0606 47.96 75.0473 47.32 75.9006 46.52C76.754 45.6667 77.4206 44.6533 77.9006 43.48C78.3806 42.2533 78.6206 40.8933 78.6206 39.4C78.6206 37.9067 78.3806 36.5733 77.9006 35.4C77.4206 34.2267 76.754 33.2133 75.9006 32.36C75.0473 31.5067 74.0606 30.8667 72.9406 30.44C71.874 29.96 70.7273 29.72 69.5006 29.72C68.274 29.72 67.1006 29.96 65.9806 30.44C64.914 30.8667 63.954 31.5067 63.1006 32.36C62.2473 33.2133 61.5806 34.2267 61.1006 35.4C60.6206 36.5733 60.3806 37.9067 60.3806 39.4C60.3806 40.8933 60.6206 42.2533 61.1006 43.48C61.5806 44.6533 62.2473 45.6667 63.1006 46.52C63.954 47.32 64.914 47.96 65.9806 48.44C67.1006 48.8667 68.274 49.08 69.5006 49.08ZM115.819 77.56C112.993 77.56 110.459 77.1867 108.219 76.44C105.979 75.7467 104.006 74.8133 102.299 73.64C100.646 72.52 99.2594 71.24 98.1394 69.8C97.0727 68.4133 96.2727 67 95.7394 65.56L107.259 61C108.006 63.0267 109.179 64.52 110.779 65.48C112.379 66.4933 114.059 67 115.819 67C118.699 67 121.019 66.0667 122.779 64.2C124.593 62.3333 125.499 59.6667 125.499 56.2V54.04H124.699C122.246 57.3467 118.513 59 113.499 59C111.259 59 109.046 58.5467 106.859 57.64C104.673 56.68 102.699 55.3467 100.939 53.64C99.1794 51.88 97.766 49.7467 96.6994 47.24C95.6327 44.7333 95.0994 41.9067 95.0994 38.76C95.0994 35.6133 95.6327 32.7867 96.6994 30.28C97.766 27.7733 99.1794 25.6667 100.939 23.96C102.699 22.2 104.673 20.8667 106.859 19.96C109.046 19 111.259 18.52 113.499 18.52C118.513 18.52 122.246 20.1733 124.699 23.48H125.499V19.8H137.019V55.64C137.019 58.84 136.513 61.7733 135.499 64.44C134.539 67.16 133.126 69.48 131.259 71.4C129.446 73.3733 127.233 74.8933 124.619 75.96C122.006 77.0267 119.073 77.56 115.819 77.56ZM116.299 48.12C117.419 48.12 118.513 47.9333 119.579 47.56C120.699 47.1333 121.686 46.5467 122.539 45.8C123.446 45 124.166 44.0133 124.699 42.84C125.233 41.6667 125.499 40.3067 125.499 38.76C125.499 37.2133 125.233 35.8533 124.699 34.68C124.166 33.5067 123.446 32.5467 122.539 31.8C121.686 31 120.699 30.4133 119.579 30.04C118.513 29.6133 117.419 29.4 116.299 29.4C115.179 29.4 114.059 29.6133 112.939 30.04C111.873 30.4133 110.886 31 109.979 31.8C109.126 32.5467 108.433 33.5067 107.899 34.68C107.366 35.8533 107.099 37.2133 107.099 38.76C107.099 40.3067 107.366 41.6667 107.899 42.84C108.433 44.0133 109.126 45 109.979 45.8C110.886 46.5467 111.873 47.1333 112.939 47.56C114.059 47.9333 115.179 48.12 116.299 48.12ZM152.651 15.48C151.585 15.48 150.598 15.2933 149.691 14.92C148.785 14.4933 147.985 13.96 147.291 13.32C146.651 12.6267 146.118 11.8267 145.691 10.92C145.318 10.0133 145.131 9.02666 145.131 7.96C145.131 6.94667 145.318 5.98667 145.691 5.08C146.118 4.12 146.651 3.32 147.291 2.68C147.985 1.98666 148.785 1.45333 149.691 1.08C150.598 0.65333 151.585 0.439996 152.651 0.439996C153.665 0.439996 154.625 0.65333 155.531 1.08C156.491 1.45333 157.291 1.98666 157.931 2.68C158.625 3.32 159.158 4.12 159.531 5.08C159.958 5.98667 160.171 6.94667 160.171 7.96C160.171 9.02666 159.958 10.0133 159.531 10.92C159.158 11.8267 158.625 12.6267 157.931 13.32C157.291 13.96 156.491 14.4933 155.531 14.92C154.625 15.2933 153.665 15.48 152.651 15.48ZM146.651 59V19.8H158.651V59H146.651ZM179.477 24.76H180.277C182.944 20.6 186.944 18.52 192.277 18.52C197.184 18.52 200.837 20.0933 203.237 23.24C205.637 26.3867 206.837 30.52 206.837 35.64V59H194.837V37C194.837 34.8667 194.33 33.1333 193.317 31.8C192.304 30.4133 190.73 29.72 188.597 29.72C185.877 29.72 183.797 30.76 182.357 32.84C180.97 34.92 180.277 37.64 180.277 41V59H168.277V19.8H179.477V24.76ZM14.6 145.416H14.24C13.664 146.04 13.004 146.556 12.26 146.964C11.54 147.372 10.604 147.576 9.452 147.576C8.564 147.576 7.724 147.432 6.932 147.144C6.164 146.856 5.48 146.448 4.88 145.92C4.304 145.392 3.848 144.756 3.512 144.012C3.176 143.268 3.008 142.44 3.008 141.528C3.008 140.64 3.188 139.836 3.548 139.116C3.908 138.372 4.4 137.736 5.024 137.208C5.648 136.68 6.38 136.272 7.22 135.984C8.084 135.696 9.02 135.552 10.028 135.552C11.108 135.552 11.996 135.624 12.692 135.768C13.412 135.912 14.048 136.08 14.6 136.272V135.804C14.6 135.036 14.276 134.388 13.628 133.86C13.004 133.308 12.152 133.032 11.072 133.032C9.512 133.032 8.168 133.668 7.04 134.94L3.368 132.348C4.376 131.148 5.54 130.26 6.86 129.684C8.204 129.084 9.68 128.784 11.288 128.784C14.168 128.784 16.34 129.432 17.804 130.728C19.268 132 20 133.944 20 136.56V147H14.6V145.416ZM14.6 140.052C14.048 139.836 13.496 139.668 12.944 139.548C12.416 139.428 11.864 139.368 11.288 139.368C10.328 139.368 9.608 139.572 9.128 139.98C8.648 140.364 8.408 140.868 8.408 141.492C8.408 142.116 8.636 142.62 9.092 143.004C9.548 143.364 10.148 143.544 10.892 143.544C11.492 143.544 12.02 143.448 12.476 143.256C12.956 143.04 13.352 142.764 13.664 142.428C13.976 142.092 14.204 141.72 14.348 141.312C14.516 140.88 14.6 140.46 14.6 140.052ZM28.7787 131.592H29.1387C30.3387 129.72 32.1387 128.784 34.5387 128.784C36.7467 128.784 38.3907 129.492 39.4707 130.908C40.5507 132.324 41.0907 134.184 41.0907 136.488V147H35.6907V137.1C35.6907 136.14 35.4627 135.36 35.0067 134.76C34.5507 134.136 33.8427 133.824 32.8827 133.824C31.6587 133.824 30.7227 134.292 30.0747 135.228C29.4507 136.164 29.1387 137.388 29.1387 138.9V147H23.7387V129.36H28.7787V131.592ZM57.933 145.056H57.573C57.165 145.752 56.529 146.352 55.665 146.856C54.825 147.336 53.757 147.576 52.461 147.576C51.333 147.576 50.253 147.348 49.221 146.892C48.189 146.436 47.277 145.8 46.485 144.984C45.717 144.144 45.105 143.148 44.649 141.996C44.193 140.844 43.965 139.572 43.965 138.18C43.965 136.788 44.193 135.516 44.649 134.364C45.105 133.212 45.717 132.228 46.485 131.412C47.277 130.572 48.189 129.924 49.221 129.468C50.253 129.012 51.333 128.784 52.461 128.784C53.757 128.784 54.825 129.036 55.665 129.54C56.529 130.02 57.165 130.608 57.573 131.304H57.933L57.573 128.784V121.224H62.973V147H57.933V145.056ZM53.649 142.536C54.225 142.536 54.765 142.44 55.269 142.248C55.797 142.032 56.253 141.744 56.637 141.384C57.045 141 57.357 140.544 57.573 140.016C57.813 139.464 57.933 138.852 57.933 138.18C57.933 137.508 57.813 136.908 57.573 136.38C57.357 135.852 57.045 135.396 56.637 135.012C56.253 134.628 55.797 134.34 55.269 134.148C54.765 133.932 54.225 133.824 53.649 133.824C53.073 133.824 52.521 133.932 51.993 134.148C51.489 134.34 51.033 134.628 50.625 135.012C50.241 135.396 49.929 135.852 49.689 136.38C49.473 136.908 49.365 137.508 49.365 138.18C49.365 138.852 49.473 139.464 49.689 140.016C49.929 140.544 50.241 141 50.625 141.384C51.033 141.744 51.489 142.032 51.993 142.248C52.521 142.44 53.073 142.536 53.649 142.536ZM74.9262 129.36H79.9662V131.592H80.3262C80.8062 130.824 81.4902 130.176 82.3782 129.648C83.2662 129.12 84.2502 128.856 85.3302 128.856C85.9782 128.856 86.5422 128.94 87.0222 129.108C87.5022 129.252 87.8982 129.42 88.2102 129.612L86.8062 134.364C86.4942 134.196 86.1582 134.064 85.7982 133.968C85.4622 133.872 85.0182 133.824 84.4662 133.824C83.1222 133.824 82.0902 134.292 81.3702 135.228C80.6742 136.164 80.3262 137.388 80.3262 138.9V147H74.9262V129.36ZM106.334 142.716C105.47 144.228 104.33 145.416 102.914 146.28C101.522 147.144 99.8299 147.576 97.8379 147.576C96.4699 147.576 95.1979 147.348 94.0219 146.892C92.8699 146.412 91.8619 145.752 90.9979 144.912C90.1339 144.072 89.4619 143.088 88.9819 141.96C88.5019 140.808 88.2619 139.548 88.2619 138.18C88.2619 136.908 88.5019 135.708 88.9819 134.58C89.4619 133.428 90.1219 132.432 90.9619 131.592C91.8259 130.728 92.8219 130.044 93.9499 129.54C95.1019 129.036 96.3499 128.784 97.6939 128.784C99.1579 128.784 100.442 129.024 101.546 129.504C102.674 129.984 103.61 130.644 104.354 131.484C105.098 132.3 105.662 133.272 106.046 134.4C106.43 135.504 106.622 136.692 106.622 137.964C106.622 138.156 106.61 138.348 106.586 138.54C106.586 138.732 106.574 138.9 106.55 139.044C106.526 139.212 106.514 139.368 106.514 139.512H93.5179C93.7819 140.664 94.3219 141.504 95.1379 142.032C95.9539 142.56 96.8659 142.824 97.8739 142.824C98.8819 142.824 99.7099 142.608 100.358 142.176C101.03 141.744 101.558 141.192 101.942 140.52L106.334 142.716ZM101.546 135.84C101.498 135.552 101.378 135.24 101.186 134.904C101.018 134.568 100.766 134.268 100.43 134.004C100.118 133.716 99.7219 133.488 99.2419 133.32C98.7859 133.128 98.2699 133.032 97.6939 133.032C96.8539 133.032 96.0739 133.272 95.3539 133.752C94.6339 134.232 94.1059 134.928 93.7699 135.84H101.546ZM117.108 147.576C115.884 147.576 114.804 147.432 113.868 147.144C112.932 146.856 112.116 146.484 111.42 146.028C110.748 145.548 110.184 145.008 109.728 144.408C109.272 143.784 108.924 143.16 108.684 142.536L113.544 140.484C113.88 141.3 114.348 141.9 114.948 142.284C115.548 142.644 116.268 142.824 117.108 142.824C117.828 142.824 118.38 142.716 118.764 142.5C119.172 142.26 119.376 141.96 119.376 141.6C119.376 141.192 119.184 140.88 118.8 140.664C118.416 140.424 117.804 140.208 116.964 140.016L114.552 139.512C113.976 139.392 113.388 139.2 112.788 138.936C112.188 138.672 111.636 138.324 111.132 137.892C110.628 137.46 110.22 136.956 109.908 136.38C109.596 135.78 109.44 135.096 109.44 134.328C109.44 133.488 109.62 132.732 109.98 132.06C110.364 131.364 110.88 130.776 111.528 130.296C112.176 129.816 112.944 129.444 113.832 129.18C114.72 128.916 115.692 128.784 116.748 128.784C118.572 128.784 120.144 129.108 121.464 129.756C122.784 130.38 123.78 131.436 124.452 132.924L119.808 134.832C119.496 134.208 119.052 133.752 118.476 133.464C117.924 133.176 117.36 133.032 116.784 133.032C116.16 133.032 115.656 133.14 115.272 133.356C114.888 133.572 114.696 133.836 114.696 134.148C114.696 134.484 114.888 134.76 115.272 134.976C115.68 135.168 116.172 135.336 116.748 135.48L119.484 136.128C121.284 136.56 122.628 137.256 123.516 138.216C124.404 139.176 124.848 140.304 124.848 141.6C124.848 142.392 124.656 143.148 124.272 143.868C123.912 144.588 123.384 145.224 122.688 145.776C122.016 146.328 121.2 146.76 120.24 147.072C119.304 147.408 118.26 147.576 117.108 147.576ZM139.899 144.768H139.539C138.339 146.64 136.539 147.576 134.139 147.576C131.931 147.576 130.287 146.868 129.207 145.452C128.127 144.036 127.587 142.176 127.587 139.872V129.36H132.987V139.26C132.987 140.22 133.215 141.012 133.671 141.636C134.127 142.236 134.835 142.536 135.795 142.536C137.019 142.536 137.943 142.068 138.567 141.132C139.215 140.196 139.539 138.972 139.539 137.46V129.36H144.939V147H139.899V144.768ZM148.965 129.36H154.005V131.592H154.365C154.941 130.704 155.673 130.02 156.561 129.54C157.473 129.036 158.541 128.784 159.765 128.784C161.109 128.784 162.225 129.108 163.113 129.756C164.001 130.38 164.625 131.112 164.985 131.952C165.513 131.112 166.269 130.38 167.253 129.756C168.237 129.108 169.473 128.784 170.961 128.784C172.017 128.784 172.941 128.964 173.733 129.324C174.525 129.66 175.173 130.14 175.677 130.764C176.205 131.388 176.601 132.132 176.865 132.996C177.129 133.86 177.261 134.808 177.261 135.84V147H171.861V136.884C171.861 135.972 171.645 135.24 171.213 134.688C170.805 134.112 170.193 133.824 169.377 133.824C168.201 133.824 167.313 134.304 166.713 135.264C166.113 136.2 165.813 137.46 165.813 139.044V147H160.413V136.884C160.413 135.972 160.185 135.24 159.729 134.688C159.297 134.112 158.613 133.824 157.677 133.824C156.573 133.824 155.745 134.304 155.193 135.264C154.641 136.2 154.365 137.46 154.365 139.044V147H148.965V129.36ZM198.197 142.716C197.333 144.228 196.193 145.416 194.777 146.28C193.385 147.144 191.693 147.576 189.701 147.576C188.333 147.576 187.061 147.348 185.885 146.892C184.733 146.412 183.725 145.752 182.861 144.912C181.997 144.072 181.325 143.088 180.845 141.96C180.365 140.808 180.125 139.548 180.125 138.18C180.125 136.908 180.365 135.708 180.845 134.58C181.325 133.428 181.985 132.432 182.825 131.592C183.689 130.728 184.685 130.044 185.813 129.54C186.965 129.036 188.213 128.784 189.557 128.784C191.021 128.784 192.305 129.024 193.409 129.504C194.537 129.984 195.473 130.644 196.217 131.484C196.961 132.3 197.525 133.272 197.909 134.4C198.293 135.504 198.485 136.692 198.485 137.964C198.485 138.156 198.473 138.348 198.449 138.54C198.449 138.732 198.437 138.9 198.413 139.044C198.389 139.212 198.377 139.368 198.377 139.512H185.381C185.645 140.664 186.185 141.504 187.001 142.032C187.817 142.56 188.729 142.824 189.737 142.824C190.745 142.824 191.573 142.608 192.221 142.176C192.893 141.744 193.421 141.192 193.805 140.52L198.197 142.716ZM193.409 135.84C193.361 135.552 193.241 135.24 193.049 134.904C192.881 134.568 192.629 134.268 192.293 134.004C191.981 133.716 191.585 133.488 191.105 133.32C190.649 133.128 190.133 133.032 189.557 133.032C188.717 133.032 187.937 133.272 187.217 133.752C186.497 134.232 185.969 134.928 185.633 135.84H193.409ZM215.05 146.244L207.562 129.36H213.79L217.858 139.08H218.218L222.106 129.36H228.19L217.138 154.776H211.234L215.05 146.244ZM238.145 128.784C239.513 128.784 240.773 129.024 241.925 129.504C243.101 129.96 244.109 130.608 244.949 131.448C245.813 132.264 246.473 133.248 246.929 134.4C247.409 135.552 247.649 136.812 247.649 138.18C247.649 139.548 247.409 140.808 246.929 141.96C246.473 143.112 245.813 144.108 244.949 144.948C244.109 145.764 243.101 146.412 241.925 146.892C240.773 147.348 239.513 147.576 238.145 147.576C236.777 147.576 235.505 147.348 234.329 146.892C233.177 146.412 232.169 145.764 231.305 144.948C230.465 144.108 229.805 143.112 229.325 141.96C228.869 140.808 228.641 139.548 228.641 138.18C228.641 136.812 228.869 135.552 229.325 134.4C229.805 133.248 230.465 132.264 231.305 131.448C232.169 130.608 233.177 129.96 234.329 129.504C235.505 129.024 236.777 128.784 238.145 128.784ZM238.145 142.536C238.697 142.536 239.213 142.44 239.693 142.248C240.197 142.032 240.641 141.744 241.025 141.384C241.409 141 241.709 140.544 241.925 140.016C242.141 139.464 242.249 138.852 242.249 138.18C242.249 137.508 242.141 136.908 241.925 136.38C241.709 135.852 241.409 135.396 241.025 135.012C240.641 134.628 240.197 134.34 239.693 134.148C239.213 133.932 238.697 133.824 238.145 133.824C237.593 133.824 237.065 133.932 236.561 134.148C236.081 134.34 235.649 134.628 235.265 135.012C234.881 135.396 234.581 135.852 234.365 136.38C234.149 136.908 234.041 137.508 234.041 138.18C234.041 138.852 234.149 139.464 234.365 140.016C234.581 140.544 234.881 141 235.265 141.384C235.649 141.744 236.081 142.032 236.561 142.248C237.065 142.44 237.593 142.536 238.145 142.536ZM262.664 144.768H262.304C261.104 146.64 259.304 147.576 256.904 147.576C254.696 147.576 253.052 146.868 251.972 145.452C250.892 144.036 250.352 142.176 250.352 139.872V129.36H255.752V139.26C255.752 140.22 255.98 141.012 256.436 141.636C256.892 142.236 257.6 142.536 258.56 142.536C259.784 142.536 260.708 142.068 261.332 141.132C261.98 140.196 262.304 138.972 262.304 137.46V129.36H267.704V147H262.664V144.768ZM271.731 129.36H276.771V131.592H277.131C277.611 130.824 278.295 130.176 279.183 129.648C280.071 129.12 281.055 128.856 282.135 128.856C282.783 128.856 283.347 128.94 283.827 129.108C284.307 129.252 284.703 129.42 285.015 129.612L283.611 134.364C283.299 134.196 282.963 134.064 282.603 133.968C282.267 133.872 281.823 133.824 281.271 133.824C279.927 133.824 278.895 134.292 278.175 135.228C277.479 136.164 277.131 137.388 277.131 138.9V147H271.731V129.36ZM1.568 193.808C1.976 194.048 2.42 194.168 2.9 194.168C3.836 194.168 4.304 193.568 4.304 192.368V173.36H9.704V192.512C9.704 193.736 9.536 194.768 9.2 195.608C8.864 196.448 8.408 197.132 7.832 197.66C7.28 198.188 6.644 198.56 5.924 198.776C5.204 199.016 4.448 199.136 3.656 199.136C2.936 199.136 2.3 199.088 1.748 198.992C1.196 198.896 0.68 198.752 0.2 198.56L1.568 193.808ZM7.004 171.416C6.524 171.416 6.08 171.332 5.672 171.164C5.264 170.972 4.904 170.732 4.592 170.444C4.304 170.132 4.064 169.772 3.872 169.364C3.704 168.956 3.62 168.512 3.62 168.032C3.62 167.576 3.704 167.144 3.872 166.736C4.064 166.304 4.304 165.944 4.592 165.656C4.904 165.344 5.264 165.104 5.672 164.936C6.08 164.744 6.524 164.648 7.004 164.648C7.46 164.648 7.892 164.744 8.3 164.936C8.732 165.104 9.092 165.344 9.38 165.656C9.692 165.944 9.932 166.304 10.1 166.736C10.292 167.144 10.388 167.576 10.388 168.032C10.388 168.512 10.292 168.956 10.1 169.364C9.932 169.772 9.692 170.132 9.38 170.444C9.092 170.732 8.732 170.972 8.3 171.164C7.892 171.332 7.46 171.416 7.004 171.416ZM22.3558 172.784C23.7238 172.784 24.9838 173.024 26.1358 173.504C27.3118 173.96 28.3198 174.608 29.1598 175.448C30.0238 176.264 30.6838 177.248 31.1398 178.4C31.6198 179.552 31.8598 180.812 31.8598 182.18C31.8598 183.548 31.6198 184.808 31.1398 185.96C30.6838 187.112 30.0238 188.108 29.1598 188.948C28.3198 189.764 27.3118 190.412 26.1358 190.892C24.9838 191.348 23.7238 191.576 22.3558 191.576C20.9878 191.576 19.7158 191.348 18.5398 190.892C17.3878 190.412 16.3798 189.764 15.5158 188.948C14.6758 188.108 14.0158 187.112 13.5358 185.96C13.0798 184.808 12.8518 183.548 12.8518 182.18C12.8518 180.812 13.0798 179.552 13.5358 178.4C14.0158 177.248 14.6758 176.264 15.5158 175.448C16.3798 174.608 17.3878 173.96 18.5398 173.504C19.7158 173.024 20.9878 172.784 22.3558 172.784ZM22.3558 186.536C22.9078 186.536 23.4238 186.44 23.9038 186.248C24.4078 186.032 24.8518 185.744 25.2358 185.384C25.6198 185 25.9198 184.544 26.1358 184.016C26.3518 183.464 26.4598 182.852 26.4598 182.18C26.4598 181.508 26.3518 180.908 26.1358 180.38C25.9198 179.852 25.6198 179.396 25.2358 179.012C24.8518 178.628 24.4078 178.34 23.9038 178.148C23.4238 177.932 22.9078 177.824 22.3558 177.824C21.8038 177.824 21.2758 177.932 20.7718 178.148C20.2918 178.34 19.8598 178.628 19.4758 179.012C19.0918 179.396 18.7918 179.852 18.5758 180.38C18.3598 180.908 18.2518 181.508 18.2518 182.18C18.2518 182.852 18.3598 183.464 18.5758 184.016C18.7918 184.544 19.0918 185 19.4758 185.384C19.8598 185.744 20.2918 186.032 20.7718 186.248C21.2758 186.44 21.8038 186.536 22.3558 186.536ZM46.8754 188.768H46.5154C45.3154 190.64 43.5154 191.576 41.1154 191.576C38.9074 191.576 37.2634 190.868 36.1834 189.452C35.1034 188.036 34.5634 186.176 34.5634 183.872V173.36H39.9634V183.26C39.9634 184.22 40.1914 185.012 40.6474 185.636C41.1034 186.236 41.8114 186.536 42.7714 186.536C43.9954 186.536 44.9194 186.068 45.5434 185.132C46.1914 184.196 46.5154 182.972 46.5154 181.46V173.36H51.9154V191H46.8754V188.768ZM55.9418 173.36H60.9818V175.592H61.3418C61.8218 174.824 62.5058 174.176 63.3938 173.648C64.2818 173.12 65.2658 172.856 66.3458 172.856C66.9938 172.856 67.5578 172.94 68.0378 173.108C68.5178 173.252 68.9138 173.42 69.2258 173.612L67.8218 178.364C67.5098 178.196 67.1738 178.064 66.8138 177.968C66.4778 177.872 66.0338 177.824 65.4818 177.824C64.1378 177.824 63.1058 178.292 62.3858 179.228C61.6898 180.164 61.3418 181.388 61.3418 182.9V191H55.9418V173.36ZM76.4154 175.592H76.7754C77.9754 173.72 79.7754 172.784 82.1754 172.784C84.3834 172.784 86.0274 173.492 87.1074 174.908C88.1874 176.324 88.7274 178.184 88.7274 180.488V191H83.3274V181.1C83.3274 180.14 83.0994 179.36 82.6434 178.76C82.1874 178.136 81.4794 177.824 80.5194 177.824C79.2954 177.824 78.3594 178.292 77.7114 179.228C77.0874 180.164 76.7754 181.388 76.7754 182.9V191H71.3754V173.36H76.4154V175.592ZM109.674 186.716C108.81 188.228 107.67 189.416 106.254 190.28C104.862 191.144 103.17 191.576 101.178 191.576C99.8098 191.576 98.5378 191.348 97.3618 190.892C96.2098 190.412 95.2018 189.752 94.3378 188.912C93.4738 188.072 92.8018 187.088 92.3218 185.96C91.8418 184.808 91.6018 183.548 91.6018 182.18C91.6018 180.908 91.8418 179.708 92.3218 178.58C92.8018 177.428 93.4618 176.432 94.3018 175.592C95.1658 174.728 96.1618 174.044 97.2898 173.54C98.4418 173.036 99.6898 172.784 101.034 172.784C102.498 172.784 103.782 173.024 104.886 173.504C106.014 173.984 106.95 174.644 107.694 175.484C108.438 176.3 109.002 177.272 109.386 178.4C109.77 179.504 109.962 180.692 109.962 181.964C109.962 182.156 109.95 182.348 109.926 182.54C109.926 182.732 109.914 182.9 109.89 183.044C109.866 183.212 109.854 183.368 109.854 183.512H96.8578C97.1218 184.664 97.6618 185.504 98.4778 186.032C99.2938 186.56 100.206 186.824 101.214 186.824C102.222 186.824 103.05 186.608 103.698 186.176C104.37 185.744 104.898 185.192 105.282 184.52L109.674 186.716ZM104.886 179.84C104.838 179.552 104.718 179.24 104.526 178.904C104.358 178.568 104.106 178.268 103.77 178.004C103.458 177.716 103.062 177.488 102.582 177.32C102.126 177.128 101.61 177.032 101.034 177.032C100.194 177.032 99.4138 177.272 98.6938 177.752C97.9738 178.232 97.4458 178.928 97.1098 179.84H104.886ZM118.265 190.244L110.777 173.36H117.005L121.073 183.08H121.433L125.321 173.36H131.405L120.353 198.776H114.449L118.265 190.244Z" fill="url(#paint0_linear_40_2)"/>
</g>
<defs>
<filter id="filter0_i_40_2" x="0.200012" y="0.440002" width="284.948" height="202.696" filterUnits="userSpaceOnUse" color-interpolation-filters="sRGB">
<feFlood flood-opacity="0" result="BackgroundImageFix"/>
<feBlend mode="normal" in="SourceGraphic" in2="BackgroundImageFix" result="shape"/>
<feColorMatrix in="SourceAlpha" type="matrix" values="0 0 0 0 0 0 0 0 0 0 0 0 0 0 0 0 0 0 127 0" result="hardAlpha"/>
<feOffset dy="4"/>
<feGaussianBlur stdDeviation="2"/>
<feComposite in2="hardAlpha" operator="arithmetic" k2="-1" k3="1"/>
<feColorMatrix type="matrix" values="0 0 0 0 0.357083 0 0 0 0 0.0643526 0 0 0 0 0.0643526 0 0 0 0.25 0"/>
<feBlend mode="normal" in2="shape" result="effect1_innerShadow_40_2"/>
</filter>
<linearGradient id="paint0_linear_40_2" x1="-24" y1="-18" x2="148.97" y2="264.977" gradientUnits="userSpaceOnUse">
<stop offset="0.0283325" stop-color="#B1C9EF"/>
<stop offset="0.8011" stop-color="#628ECB" stop-opacity="0.59"/>
</linearGradient>
</defs>
</svg>
