<svg width="403" height="219" viewBox="0 0 403 219" fill="none" xmlns="http://www.w3.org/2000/svg">
<g filter="url(#filter0_i_40_2)">
<path d="M8.76 1.72H30.36C33.4533 1.72 36.2267 2.2 38.68 3.16C41.1333 4.06666 43.1867 5.34666 44.84 7C46.5467 8.65333 47.8267 10.6267 48.68 12.92C49.5867 15.16 50.04 17.6133 50.04 20.28C50.04 22.1467 49.72 23.88 49.08 25.48C48.4933 27.08 47.6667 28.5733 46.6 29.96C45.5867 31.2933 44.3867 32.4933 43 33.56C41.6133 34.5733 40.12 35.4267 38.52 36.12V36.84L53.48 58.2V59H39.24L24.76 38.36H21.24V59H8.76V1.72ZM30.36 26.84C32.6 26.84 34.36 26.2 35.64 24.92C36.92 23.5867 37.56 21.96 37.56 20.04C37.56 18.12 36.9467 16.52 35.72 15.24C34.5467 13.9067 32.76 13.24 30.36 13.24H21.24V26.84H30.36ZM95.8688 49.48C93.9488 52.84 91.4154 55.48 88.2688 57.4C85.1754 59.32 81.4154 60.28 76.9887 60.28C73.9488 60.28 71.1221 59.7733 68.5088 58.76C65.9488 57.6933 63.7088 56.2267 61.7888 54.36C59.8688 52.4933 58.3754 50.3067 57.3088 47.8C56.2421 45.24 55.7088 42.44 55.7088 39.4C55.7088 36.5733 56.2421 33.9067 57.3088 31.4C58.3754 28.84 59.8421 26.6267 61.7088 24.76C63.6288 22.84 65.8421 21.32 68.3488 20.2C70.9088 19.08 73.6821 18.52 76.6688 18.52C79.9221 18.52 82.7754 19.0533 85.2288 20.12C87.7354 21.1867 89.8154 22.6533 91.4688 24.52C93.1221 26.3333 94.3754 28.4933 95.2288 31C96.0821 33.4533 96.5088 36.0933 96.5088 38.92C96.5088 39.3467 96.4821 39.7733 96.4288 40.2C96.4288 40.6267 96.4021 41 96.3488 41.32C96.2954 41.6933 96.2688 42.04 96.2688 42.36H67.3888C67.9754 44.92 69.1754 46.7867 70.9888 47.96C72.8021 49.1333 74.8288 49.72 77.0688 49.72C79.3088 49.72 81.1488 49.24 82.5888 48.28C84.0821 47.32 85.2554 46.0933 86.1088 44.6L95.8688 49.48ZM85.2288 34.2C85.1221 33.56 84.8554 32.8667 84.4288 32.12C84.0554 31.3733 83.4954 30.7067 82.7488 30.12C82.0554 29.48 81.1754 28.9733 80.1088 28.6C79.0954 28.1733 77.9488 27.96 76.6688 27.96C74.8021 27.96 73.0688 28.4933 71.4688 29.56C69.8688 30.6267 68.6954 32.1733 67.9488 34.2H85.2288ZM122.132 77.56C119.305 77.56 116.772 77.1867 114.532 76.44C112.292 75.7467 110.319 74.8133 108.612 73.64C106.959 72.52 105.572 71.24 104.452 69.8C103.385 68.4133 102.585 67 102.052 65.56L113.572 61C114.319 63.0267 115.492 64.52 117.092 65.48C118.692 66.4933 120.372 67 122.132 67C125.012 67 127.332 66.0667 129.092 64.2C130.905 62.3333 131.812 59.6667 131.812 56.2V54.04H131.012C128.559 57.3467 124.825 59 119.812 59C117.572 59 115.359 58.5467 113.172 57.64C110.985 56.68 109.012 55.3467 107.252 53.64C105.492 51.88 104.079 49.7467 103.012 47.24C101.945 44.7333 101.412 41.9067 101.412 38.76C101.412 35.6133 101.945 32.7867 103.012 30.28C104.079 27.7733 105.492 25.6667 107.252 23.96C109.012 22.2 110.985 20.8667 113.172 19.96C115.359 19 117.572 18.52 119.812 18.52C124.825 18.52 128.559 20.1733 131.012 23.48H131.812V19.8H143.332V55.64C143.332 58.84 142.825 61.7733 141.812 64.44C140.852 67.16 139.439 69.48 137.572 71.4C135.759 73.3733 133.545 74.8933 130.932 75.96C128.319 77.0267 125.385 77.56 122.132 77.56ZM122.612 48.12C123.732 48.12 124.825 47.9333 125.892 47.56C127.012 47.1333 127.999 46.5467 128.852 45.8C129.759 45 130.479 44.0133 131.012 42.84C131.545 41.6667 131.812 40.3067 131.812 38.76C131.812 37.2133 131.545 35.8533 131.012 34.68C130.479 33.5067 129.759 32.5467 128.852 31.8C127.999 31 127.012 30.4133 125.892 30.04C124.825 29.6133 123.732 29.4 122.612 29.4C121.492 29.4 120.372 29.6133 119.252 30.04C118.185 30.4133 117.199 31 116.292 31.8C115.439 32.5467 114.745 33.5067 114.212 34.68C113.679 35.8533 113.412 37.2133 113.412 38.76C113.412 40.3067 113.679 41.6667 114.212 42.84C114.745 44.0133 115.439 45 116.292 45.8C117.199 46.5467 118.185 47.1333 119.252 47.56C120.372 47.9333 121.492 48.12 122.612 48.12ZM158.964 15.48C157.897 15.48 156.91 15.2933 156.004 14.92C155.097 14.4933 154.297 13.96 153.604 13.32C152.964 12.6267 152.43 11.8267 152.004 10.92C151.63 10.0133 151.444 9.02666 151.444 7.96C151.444 6.94667 151.63 5.98667 152.004 5.08C152.43 4.12 152.964 3.32 153.604 2.68C154.297 1.98666 155.097 1.45333 156.004 1.08C156.91 0.65333 157.897 0.439996 158.964 0.439996C159.977 0.439996 160.937 0.65333 161.844 1.08C162.804 1.45333 163.604 1.98666 164.244 2.68C164.937 3.32 165.47 4.12 165.844 5.08C166.27 5.98667 166.484 6.94667 166.484 7.96C166.484 9.02666 166.27 10.0133 165.844 10.92C165.47 11.8267 164.937 12.6267 164.244 13.32C163.604 13.96 162.804 14.4933 161.844 14.92C160.937 15.2933 159.977 15.48 158.964 15.48ZM152.964 59V19.8H164.964V59H152.964ZM190.749 60.28C188.029 60.28 185.629 59.96 183.549 59.32C181.469 58.68 179.656 57.8533 178.109 56.84C176.616 55.7733 175.363 54.5733 174.349 53.24C173.336 51.8533 172.563 50.4667 172.029 49.08L182.829 44.52C183.576 46.3333 184.616 47.6667 185.949 48.52C187.283 49.32 188.883 49.72 190.749 49.72C192.349 49.72 193.576 49.48 194.429 49C195.336 48.4667 195.789 47.8 195.789 47C195.789 46.0933 195.363 45.4 194.509 44.92C193.656 44.3867 192.296 43.9067 190.429 43.48L185.069 42.36C183.789 42.0933 182.483 41.6667 181.149 41.08C179.816 40.4933 178.589 39.72 177.469 38.76C176.349 37.8 175.443 36.68 174.749 35.4C174.056 34.0667 173.709 32.5467 173.709 30.84C173.709 28.9733 174.109 27.2933 174.909 25.8C175.763 24.2533 176.909 22.9467 178.349 21.88C179.789 20.8133 181.496 19.9867 183.469 19.4C185.443 18.8133 187.603 18.52 189.949 18.52C194.003 18.52 197.496 19.24 200.429 20.68C203.363 22.0667 205.576 24.4133 207.069 27.72L196.749 31.96C196.056 30.5733 195.069 29.56 193.789 28.92C192.563 28.28 191.309 27.96 190.029 27.96C188.643 27.96 187.523 28.2 186.669 28.68C185.816 29.16 185.389 29.7467 185.389 30.44C185.389 31.1867 185.816 31.8 186.669 32.28C187.576 32.7067 188.669 33.08 189.949 33.4L196.029 34.84C200.029 35.8 203.016 37.3467 204.989 39.48C206.963 41.6133 207.949 44.12 207.949 47C207.949 48.76 207.523 50.44 206.669 52.04C205.869 53.64 204.696 55.0533 203.149 56.28C201.656 57.5067 199.843 58.4667 197.709 59.16C195.629 59.9067 193.309 60.28 190.749 60.28ZM218.284 29.88H211.404V19.8H218.284V7.8H230.284V19.8H239.964V29.88H230.284V43.08C230.284 43.9333 230.391 44.7333 230.604 45.48C230.818 46.1733 231.191 46.76 231.724 47.24C232.524 47.9333 233.564 48.28 234.844 48.28C235.698 48.28 236.418 48.1733 237.004 47.96C237.591 47.7467 238.098 47.48 238.524 47.16L241.884 57.56C240.498 58.2 239.004 58.7067 237.404 59.08C235.804 59.4533 234.098 59.64 232.284 59.64C228.071 59.64 224.738 58.4133 222.284 55.96C221.004 54.68 220.018 53.1067 219.324 51.24C218.631 49.32 218.284 47.2133 218.284 44.92V29.88ZM285.478 49.48C283.558 52.84 281.025 55.48 277.878 57.4C274.785 59.32 271.025 60.28 266.598 60.28C263.558 60.28 260.731 59.7733 258.118 58.76C255.558 57.6933 253.318 56.2267 251.398 54.36C249.478 52.4933 247.985 50.3067 246.918 47.8C245.851 45.24 245.318 42.44 245.318 39.4C245.318 36.5733 245.851 33.9067 246.918 31.4C247.985 28.84 249.451 26.6267 251.318 24.76C253.238 22.84 255.451 21.32 257.958 20.2C260.518 19.08 263.291 18.52 266.278 18.52C269.531 18.52 272.385 19.0533 274.838 20.12C277.345 21.1867 279.425 22.6533 281.078 24.52C282.731 26.3333 283.985 28.4933 284.838 31C285.691 33.4533 286.118 36.0933 286.118 38.92C286.118 39.3467 286.091 39.7733 286.038 40.2C286.038 40.6267 286.011 41 285.958 41.32C285.905 41.6933 285.878 42.04 285.878 42.36H256.998C257.585 44.92 258.785 46.7867 260.598 47.96C262.411 49.1333 264.438 49.72 266.678 49.72C268.918 49.72 270.758 49.24 272.198 48.28C273.691 47.32 274.865 46.0933 275.718 44.6L285.478 49.48ZM274.838 34.2C274.731 33.56 274.465 32.8667 274.038 32.12C273.665 31.3733 273.105 30.7067 272.358 30.12C271.665 29.48 270.785 28.9733 269.718 28.6C268.705 28.1733 267.558 27.96 266.278 27.96C264.411 27.96 262.678 28.4933 261.078 29.56C259.478 30.6267 258.305 32.1733 257.558 34.2H274.838ZM292.871 19.8H304.071V24.76H304.871C305.937 23.0533 307.457 21.6133 309.431 20.44C311.404 19.2667 313.591 18.68 315.991 18.68C317.431 18.68 318.684 18.8667 319.751 19.24C320.817 19.56 321.697 19.9333 322.391 20.36L319.271 30.92C318.577 30.5467 317.831 30.2533 317.031 30.04C316.284 29.8267 315.297 29.72 314.071 29.72C311.084 29.72 308.791 30.76 307.191 32.84C305.644 34.92 304.871 37.64 304.871 41V59H292.871V19.8ZM24 129.36H23.4C22.44 130.4 21.34 131.26 20.1 131.94C18.9 132.62 17.34 132.96 15.42 132.96C13.94 132.96 12.54 132.72 11.22 132.24C9.94 131.76 8.8 131.08 7.8 130.2C6.84 129.32 6.08 128.26 5.52 127.02C4.96 125.78 4.68 124.4 4.68 122.88C4.68 121.4 4.98 120.06 5.58 118.86C6.18 117.62 7 116.56 8.04 115.68C9.08 114.8 10.3 114.12 11.7 113.64C13.14 113.16 14.7 112.92 16.38 112.92C18.18 112.92 19.66 113.04 20.82 113.28C22.02 113.52 23.08 113.8 24 114.12V113.34C24 112.06 23.46 110.98 22.38 110.1C21.34 109.18 19.92 108.72 18.12 108.72C15.52 108.72 13.28 109.78 11.4 111.9L5.28 107.58C6.96 105.58 8.9 104.1 11.1 103.14C13.34 102.14 15.8 101.64 18.48 101.64C23.28 101.64 26.9 102.72 29.34 104.88C31.78 107 33 110.24 33 114.6V132H24V129.36ZM24 120.42C23.08 120.06 22.16 119.78 21.24 119.58C20.36 119.38 19.44 119.28 18.48 119.28C16.88 119.28 15.68 119.62 14.88 120.3C14.08 120.94 13.68 121.78 13.68 122.82C13.68 123.86 14.06 124.7 14.82 125.34C15.58 125.94 16.58 126.24 17.82 126.24C18.82 126.24 19.7 126.08 20.46 125.76C21.26 125.4 21.92 124.94 22.44 124.38C22.96 123.82 23.34 123.2 23.58 122.52C23.86 121.8 24 121.1 24 120.42ZM47.6311 106.32H48.2311C50.2311 103.2 53.2311 101.64 57.2311 101.64C60.9111 101.64 63.6511 102.82 65.4511 105.18C67.2511 107.54 68.1511 110.64 68.1511 114.48V132H59.1511V115.5C59.1511 113.9 58.7711 112.6 58.0111 111.6C57.2511 110.56 56.0711 110.04 54.4711 110.04C52.4311 110.04 50.8711 110.82 49.7911 112.38C48.7511 113.94 48.2311 115.98 48.2311 118.5V132H39.2311V102.6H47.6311V106.32ZM96.2217 128.76H95.6217C94.9417 129.92 93.8817 130.92 92.4417 131.76C91.0417 132.56 89.2617 132.96 87.1017 132.96C85.2217 132.96 83.4217 132.58 81.7017 131.82C79.9817 131.06 78.4617 130 77.1417 128.64C75.8617 127.24 74.8417 125.58 74.0817 123.66C73.3217 121.74 72.9417 119.62 72.9417 117.3C72.9417 114.98 73.3217 112.86 74.0817 110.94C74.8417 109.02 75.8617 107.38 77.1417 106.02C78.4617 104.62 79.9817 103.54 81.7017 102.78C83.4217 102.02 85.2217 101.64 87.1017 101.64C89.2617 101.64 91.0417 102.06 92.4417 102.9C93.8817 103.7 94.9417 104.68 95.6217 105.84H96.2217L95.6217 101.64V89.04H104.622V132H96.2217V128.76ZM89.0817 124.56C90.0417 124.56 90.9417 124.4 91.7817 124.08C92.6617 123.72 93.4217 123.24 94.0617 122.64C94.7417 122 95.2617 121.24 95.6217 120.36C96.0217 119.44 96.2217 118.42 96.2217 117.3C96.2217 116.18 96.0217 115.18 95.6217 114.3C95.2617 113.42 94.7417 112.66 94.0617 112.02C93.4217 111.38 92.6617 110.9 91.7817 110.58C90.9417 110.22 90.0417 110.04 89.0817 110.04C88.1217 110.04 87.2017 110.22 86.3217 110.58C85.4817 110.9 84.7217 111.38 84.0417 112.02C83.4017 112.66 82.8817 113.42 82.4817 114.3C82.1217 115.18 81.9417 116.18 81.9417 117.3C81.9417 118.42 82.1217 119.44 82.4817 120.36C82.8817 121.24 83.4017 122 84.0417 122.64C84.7217 123.24 85.4817 123.72 86.3217 124.08C87.2017 124.4 88.1217 124.56 89.0817 124.56ZM136.664 132.96C134.624 132.96 132.824 132.72 131.264 132.24C129.704 131.76 128.344 131.14 127.184 130.38C126.064 129.58 125.124 128.68 124.364 127.68C123.604 126.64 123.024 125.6 122.624 124.56L130.724 121.14C131.284 122.5 132.064 123.5 133.064 124.14C134.064 124.74 135.264 125.04 136.664 125.04C137.864 125.04 138.784 124.86 139.424 124.5C140.104 124.1 140.444 123.6 140.444 123C140.444 122.32 140.124 121.8 139.484 121.44C138.844 121.04 137.824 120.68 136.424 120.36L132.404 119.52C131.444 119.32 130.464 119 129.464 118.56C128.464 118.12 127.544 117.54 126.704 116.82C125.864 116.1 125.184 115.26 124.664 114.3C124.144 113.3 123.884 112.16 123.884 110.88C123.884 109.48 124.184 108.22 124.784 107.1C125.424 105.94 126.284 104.96 127.364 104.16C128.444 103.36 129.724 102.74 131.204 102.3C132.684 101.86 134.304 101.64 136.064 101.64C139.104 101.64 141.724 102.18 143.924 103.26C146.124 104.3 147.784 106.06 148.904 108.54L141.164 111.72C140.644 110.68 139.904 109.92 138.944 109.44C138.024 108.96 137.084 108.72 136.124 108.72C135.084 108.72 134.244 108.9 133.604 109.26C132.964 109.62 132.644 110.06 132.644 110.58C132.644 111.14 132.964 111.6 133.604 111.96C134.284 112.28 135.104 112.56 136.064 112.8L140.624 113.88C143.624 114.6 145.864 115.76 147.344 117.36C148.824 118.96 149.564 120.84 149.564 123C149.564 124.32 149.244 125.58 148.604 126.78C148.004 127.98 147.124 129.04 145.964 129.96C144.844 130.88 143.484 131.6 141.884 132.12C140.324 132.68 138.584 132.96 136.664 132.96ZM157.315 110.16H152.155V102.6H157.315V93.6H166.315V102.6H173.575V110.16H166.315V120.06C166.315 120.7 166.395 121.3 166.555 121.86C166.715 122.38 166.995 122.82 167.395 123.18C167.995 123.7 168.775 123.96 169.735 123.96C170.375 123.96 170.915 123.88 171.355 123.72C171.795 123.56 172.175 123.36 172.495 123.12L175.015 130.92C173.975 131.4 172.855 131.78 171.655 132.06C170.455 132.34 169.175 132.48 167.815 132.48C164.655 132.48 162.155 131.56 160.315 129.72C159.355 128.76 158.615 127.58 158.095 126.18C157.575 124.74 157.315 123.16 157.315 121.44V110.16ZM196.617 129.36H196.017C195.057 130.4 193.957 131.26 192.717 131.94C191.517 132.62 189.957 132.96 188.037 132.96C186.557 132.96 185.157 132.72 183.837 132.24C182.557 131.76 181.417 131.08 180.417 130.2C179.457 129.32 178.697 128.26 178.137 127.02C177.577 125.78 177.297 124.4 177.297 122.88C177.297 121.4 177.597 120.06 178.197 118.86C178.797 117.62 179.617 116.56 180.657 115.68C181.697 114.8 182.917 114.12 184.317 113.64C185.757 113.16 187.317 112.92 188.997 112.92C190.797 112.92 192.277 113.04 193.437 113.28C194.637 113.52 195.697 113.8 196.617 114.12V113.34C196.617 112.06 196.077 110.98 194.997 110.1C193.957 109.18 192.537 108.72 190.737 108.72C188.137 108.72 185.897 109.78 184.017 111.9L177.897 107.58C179.577 105.58 181.517 104.1 183.717 103.14C185.957 102.14 188.417 101.64 191.097 101.64C195.897 101.64 199.517 102.72 201.957 104.88C204.397 107 205.617 110.24 205.617 114.6V132H196.617V129.36ZM196.617 120.42C195.697 120.06 194.777 119.78 193.857 119.58C192.977 119.38 192.057 119.28 191.097 119.28C189.497 119.28 188.297 119.62 187.497 120.3C186.697 120.94 186.297 121.78 186.297 122.82C186.297 123.86 186.677 124.7 187.437 125.34C188.197 125.94 189.197 126.24 190.437 126.24C191.437 126.24 192.317 126.08 193.077 125.76C193.877 125.4 194.537 124.94 195.057 124.38C195.577 123.82 195.957 123.2 196.197 122.52C196.477 121.8 196.617 121.1 196.617 120.42ZM211.848 102.6H220.248V106.32H220.848C221.648 105.04 222.788 103.96 224.268 103.08C225.748 102.2 227.388 101.76 229.188 101.76C229.948 101.76 230.548 101.78 230.988 101.82C231.468 101.86 231.908 101.98 232.308 102.18V110.88C231.828 110.64 231.268 110.44 230.628 110.28C230.028 110.12 229.288 110.04 228.408 110.04C226.008 110.04 224.148 110.8 222.828 112.32C221.508 113.8 220.848 115.86 220.848 118.5V132H211.848V102.6ZM240.768 110.16H235.608V102.6H240.768V93.6H249.768V102.6H257.028V110.16H249.768V120.06C249.768 120.7 249.848 121.3 250.008 121.86C250.168 122.38 250.448 122.82 250.848 123.18C251.448 123.7 252.228 123.96 253.188 123.96C253.828 123.96 254.368 123.88 254.808 123.72C255.248 123.56 255.628 123.36 255.948 123.12L258.468 130.92C257.428 131.4 256.308 131.78 255.108 132.06C253.908 132.34 252.628 132.48 251.268 132.48C248.108 132.48 245.608 131.56 243.768 129.72C242.808 128.76 242.068 127.58 241.548 126.18C241.028 124.74 240.768 123.16 240.768 121.44V110.16ZM285.544 130.74L273.064 102.6H283.444L290.224 118.8H290.824L297.304 102.6H307.444L289.024 144.96H279.184L285.544 130.74ZM324.036 101.64C326.316 101.64 328.416 102.04 330.336 102.84C332.296 103.6 333.976 104.68 335.376 106.08C336.816 107.44 337.916 109.08 338.676 111C339.476 112.92 339.876 115.02 339.876 117.3C339.876 119.58 339.476 121.68 338.676 123.6C337.916 125.52 336.816 127.18 335.376 128.58C333.976 129.94 332.296 131.02 330.336 131.82C328.416 132.58 326.316 132.96 324.036 132.96C321.756 132.96 319.636 132.58 317.676 131.82C315.756 131.02 314.076 129.94 312.636 128.58C311.236 127.18 310.136 125.52 309.336 123.6C308.576 121.68 308.196 119.58 308.196 117.3C308.196 115.02 308.576 112.92 309.336 111C310.136 109.08 311.236 107.44 312.636 106.08C314.076 104.68 315.756 103.6 317.676 102.84C319.636 102.04 321.756 101.64 324.036 101.64ZM324.036 124.56C324.956 124.56 325.816 124.4 326.616 124.08C327.456 123.72 328.196 123.24 328.836 122.64C329.476 122 329.976 121.24 330.336 120.36C330.696 119.44 330.876 118.42 330.876 117.3C330.876 116.18 330.696 115.18 330.336 114.3C329.976 113.42 329.476 112.66 328.836 112.02C328.196 111.38 327.456 110.9 326.616 110.58C325.816 110.22 324.956 110.04 324.036 110.04C323.116 110.04 322.236 110.22 321.396 110.58C320.596 110.9 319.876 111.38 319.236 112.02C318.596 112.66 318.096 113.42 317.736 114.3C317.376 115.18 317.196 116.18 317.196 117.3C317.196 118.42 317.376 119.44 317.736 120.36C318.096 121.24 318.596 122 319.236 122.64C319.876 123.24 320.596 123.72 321.396 124.08C322.236 124.4 323.116 124.56 324.036 124.56ZM364.902 128.28H364.302C362.302 131.4 359.302 132.96 355.302 132.96C351.622 132.96 348.882 131.78 347.082 129.42C345.282 127.06 344.382 123.96 344.382 120.12V102.6H353.382V119.1C353.382 120.7 353.762 122.02 354.522 123.06C355.282 124.06 356.462 124.56 358.062 124.56C360.102 124.56 361.642 123.78 362.682 122.22C363.762 120.66 364.302 118.62 364.302 116.1V102.6H373.302V132H364.902V128.28ZM380.012 102.6H388.412V106.32H389.012C389.812 105.04 390.952 103.96 392.432 103.08C393.912 102.2 395.552 101.76 397.352 101.76C398.432 101.76 399.372 101.9 400.172 102.18C400.972 102.42 401.632 102.7 402.152 103.02L399.812 110.94C399.292 110.66 398.732 110.44 398.132 110.28C397.572 110.12 396.832 110.04 395.912 110.04C393.672 110.04 391.952 110.82 390.752 112.38C389.592 113.94 389.012 115.98 389.012 118.5V132H380.012V102.6ZM2.28 209.68C2.96 210.08 3.7 210.28 4.5 210.28C6.06 210.28 6.84 209.28 6.84 207.28V175.6H15.84V207.52C15.84 209.56 15.56 211.28 15 212.68C14.44 214.08 13.68 215.22 12.72 216.1C11.8 216.98 10.74 217.6 9.54 217.96C8.34 218.36 7.08 218.56 5.76 218.56C4.56 218.56 3.5 218.48 2.58 218.32C1.66 218.16 0.8 217.92 -4.47035e-08 217.6L2.28 209.68ZM11.34 172.36C10.54 172.36 9.8 172.22 9.12 171.94C8.44 171.62 7.84 171.22 7.32 170.74C6.84 170.22 6.44 169.62 6.12 168.94C5.84 168.26 5.7 167.52 5.7 166.72C5.7 165.96 5.84 165.24 6.12 164.56C6.44 163.84 6.84 163.24 7.32 162.76C7.84 162.24 8.44 161.84 9.12 161.56C9.8 161.24 10.54 161.08 11.34 161.08C12.1 161.08 12.82 161.24 13.5 161.56C14.22 161.84 14.82 162.24 15.3 162.76C15.82 163.24 16.22 163.84 16.5 164.56C16.82 165.24 16.98 165.96 16.98 166.72C16.98 167.52 16.82 168.26 16.5 168.94C16.22 169.62 15.82 170.22 15.3 170.74C14.82 171.22 14.22 171.62 13.5 171.94C12.82 172.22 12.1 172.36 11.34 172.36ZM36.9263 174.64C39.2063 174.64 41.3063 175.04 43.2263 175.84C45.1863 176.6 46.8663 177.68 48.2663 179.08C49.7063 180.44 50.8063 182.08 51.5663 184C52.3663 185.92 52.7663 188.02 52.7663 190.3C52.7663 192.58 52.3663 194.68 51.5663 196.6C50.8063 198.52 49.7063 200.18 48.2663 201.58C46.8663 202.94 45.1863 204.02 43.2263 204.82C41.3063 205.58 39.2063 205.96 36.9263 205.96C34.6463 205.96 32.5263 205.58 30.5663 204.82C28.6463 204.02 26.9663 202.94 25.5263 201.58C24.1263 200.18 23.0263 198.52 22.2263 196.6C21.4663 194.68 21.0863 192.58 21.0863 190.3C21.0863 188.02 21.4663 185.92 22.2263 184C23.0263 182.08 24.1263 180.44 25.5263 179.08C26.9663 177.68 28.6463 176.6 30.5663 175.84C32.5263 175.04 34.6463 174.64 36.9263 174.64ZM36.9263 197.56C37.8463 197.56 38.7063 197.4 39.5063 197.08C40.3463 196.72 41.0863 196.24 41.7263 195.64C42.3663 195 42.8663 194.24 43.2263 193.36C43.5863 192.44 43.7663 191.42 43.7663 190.3C43.7663 189.18 43.5863 188.18 43.2263 187.3C42.8663 186.42 42.3663 185.66 41.7263 185.02C41.0863 184.38 40.3463 183.9 39.5063 183.58C38.7063 183.22 37.8463 183.04 36.9263 183.04C36.0063 183.04 35.1263 183.22 34.2863 183.58C33.4863 183.9 32.7663 184.38 32.1263 185.02C31.4863 185.66 30.9863 186.42 30.6263 187.3C30.2663 188.18 30.0863 189.18 30.0863 190.3C30.0863 191.42 30.2663 192.44 30.6263 193.36C30.9863 194.24 31.4863 195 32.1263 195.64C32.7663 196.24 33.4863 196.72 34.2863 197.08C35.1263 197.4 36.0063 197.56 36.9263 197.56ZM77.7923 201.28H77.1923C75.1923 204.4 72.1923 205.96 68.1923 205.96C64.5123 205.96 61.7723 204.78 59.9723 202.42C58.1723 200.06 57.2723 196.96 57.2723 193.12V175.6H66.2723V192.1C66.2723 193.7 66.6523 195.02 67.4123 196.06C68.1723 197.06 69.3523 197.56 70.9523 197.56C72.9923 197.56 74.5323 196.78 75.5723 195.22C76.6523 193.66 77.1923 191.62 77.1923 189.1V175.6H86.1923V205H77.7923V201.28ZM92.903 175.6H101.303V179.32H101.903C102.703 178.04 103.843 176.96 105.323 176.08C106.803 175.2 108.443 174.76 110.243 174.76C111.323 174.76 112.263 174.9 113.063 175.18C113.863 175.42 114.523 175.7 115.043 176.02L112.703 183.94C112.183 183.66 111.623 183.44 111.023 183.28C110.463 183.12 109.723 183.04 108.803 183.04C106.563 183.04 104.843 183.82 103.643 185.38C102.483 186.94 101.903 188.98 101.903 191.5V205H92.903V175.6ZM127.026 179.32H127.626C129.626 176.2 132.626 174.64 136.626 174.64C140.306 174.64 143.046 175.82 144.846 178.18C146.646 180.54 147.546 183.64 147.546 187.48V205H138.546V188.5C138.546 186.9 138.166 185.6 137.406 184.6C136.646 183.56 135.466 183.04 133.866 183.04C131.826 183.04 130.266 183.82 129.186 185.38C128.146 186.94 127.626 188.98 127.626 191.5V205H118.626V175.6H127.026V179.32ZM182.456 197.86C181.016 200.38 179.116 202.36 176.756 203.8C174.436 205.24 171.616 205.96 168.296 205.96C166.016 205.96 163.896 205.58 161.936 204.82C160.016 204.02 158.336 202.92 156.896 201.52C155.456 200.12 154.336 198.48 153.536 196.6C152.736 194.68 152.336 192.58 152.336 190.3C152.336 188.18 152.736 186.18 153.536 184.3C154.336 182.38 155.436 180.72 156.836 179.32C158.276 177.88 159.936 176.74 161.816 175.9C163.736 175.06 165.816 174.64 168.056 174.64C170.496 174.64 172.636 175.04 174.476 175.84C176.356 176.64 177.916 177.74 179.156 179.14C180.396 180.5 181.336 182.12 181.976 184C182.616 185.84 182.936 187.82 182.936 189.94C182.936 190.26 182.916 190.58 182.876 190.9C182.876 191.22 182.856 191.5 182.816 191.74C182.776 192.02 182.756 192.28 182.756 192.52H161.096C161.536 194.44 162.436 195.84 163.796 196.72C165.156 197.6 166.676 198.04 168.356 198.04C170.036 198.04 171.416 197.68 172.496 196.96C173.616 196.24 174.496 195.32 175.136 194.2L182.456 197.86ZM174.476 186.4C174.396 185.92 174.196 185.4 173.876 184.84C173.596 184.28 173.176 183.78 172.616 183.34C172.096 182.86 171.436 182.48 170.636 182.2C169.876 181.88 169.016 181.72 168.056 181.72C166.656 181.72 165.356 182.12 164.156 182.92C162.956 183.72 162.076 184.88 161.516 186.4H174.476ZM196.775 203.74L184.295 175.6H194.675L201.455 191.8H202.055L208.535 175.6H218.675L200.255 217.96H190.415L196.775 203.74Z" fill="url(#paint0_linear_40_2)"/>
</g>
<defs>
<filter id="filter0_i_40_2" x="0" y="0.440002" width="402.375" height="222.12" filterUnits="userSpaceOnUse" color-interpolation-filters="sRGB">
<feFlood flood-opacity="0" result="BackgroundImageFix"/>
<feBlend mode="normal" in="SourceGraphic" in2="BackgroundImageFix" result="shape"/>
<feColorMatrix in="SourceAlpha" type="matrix" values="0 0 0 0 0 0 0 0 0 0 0 0 0 0 0 0 0 0 127 0" result="hardAlpha"/>
<feOffset dy="4"/>
<feGaussianBlur stdDeviation="2"/>
<feComposite in2="hardAlpha" operator="arithmetic" k2="-1" k3="1"/>
<feColorMatrix type="matrix" values="0 0 0 0 0.357083 0 0 0 0 0.0643526 0 0 0 0 0.0643526 0 0 0 0.25 0"/>
<feBlend mode="normal" in2="shape" result="effect1_innerShadow_40_2"/>
</filter>
<linearGradient id="paint0_linear_40_2" x1="-36.2104" y1="-18" x2="134.036" y2="348.451" gradientUnits="userSpaceOnUse">
<stop offset="0.0283325" stop-color="#B1C9EF"/>
<stop offset="1" stop-color="#628ECB"/>
</linearGradient>
</defs>
</svg>
